<svg width="244" height="14" viewBox="0 0 244 14" fill="none" xmlns="http://www.w3.org/2000/svg">
<path d="M67.9858 8.22703C67.9858 8.02193 67.9539 7.83973 67.8901 7.68013C67.8309 7.52063 67.7238 7.37483 67.5689 7.24263C67.4139 7.11053 67.1952 6.98293 66.9126 6.85983C66.6346 6.73223 66.2791 6.60233 65.8462 6.47023C65.3722 6.32443 64.9347 6.16263 64.5337 5.98483C64.1372 5.80253 63.7909 5.59293 63.4946 5.35593C63.1984 5.11443 62.9683 4.83873 62.8042 4.52883C62.6401 4.21433 62.5581 3.85203 62.5581 3.44193C62.5581 3.03633 62.6424 2.66713 62.811 2.33443C62.9842 2.00183 63.228 1.71473 63.5425 1.47313C63.8615 1.22703 64.2375 1.03793 64.6704 0.905727C65.1034 0.769027 65.5819 0.700727 66.106 0.700727C66.8442 0.700727 67.48 0.837427 68.0132 1.11083C68.551 1.38433 68.9634 1.75113 69.2505 2.21143C69.5422 2.67173 69.688 3.17983 69.688 3.73583H67.9858C67.9858 3.40773 67.9152 3.11833 67.7739 2.86763C67.6372 2.61243 67.4276 2.41193 67.145 2.26613C66.867 2.12033 66.5138 2.04733 66.0855 2.04733C65.6799 2.04733 65.3426 2.10893 65.0737 2.23193C64.8049 2.35503 64.6043 2.52133 64.4722 2.73093C64.34 2.94063 64.2739 3.17753 64.2739 3.44193C64.2739 3.62873 64.3172 3.79963 64.4038 3.95463C64.4904 4.10503 64.6226 4.24623 64.8003 4.37843C64.978 4.50603 65.2013 4.62683 65.4702 4.74073C65.7391 4.85463 66.0558 4.96403 66.4204 5.06883C66.9718 5.23293 67.4526 5.41523 67.8628 5.61573C68.273 5.81173 68.6148 6.03503 68.8882 6.28563C69.1616 6.53633 69.3667 6.82113 69.5034 7.14013C69.6401 7.45463 69.7085 7.81233 69.7085 8.21343C69.7085 8.63263 69.6242 9.01093 69.4556 9.34813C69.287 9.68083 69.0454 9.96563 68.731 10.2026C68.4211 10.435 68.0474 10.615 67.6099 10.7426C67.1769 10.8657 66.6939 10.9272 66.1607 10.9272C65.6821 10.9272 65.2105 10.8634 64.7456 10.7358C64.2853 10.6082 63.8661 10.4145 63.4878 10.1548C63.1095 9.89043 62.8088 9.56233 62.5855 9.17043C62.3621 8.77393 62.2505 8.31133 62.2505 7.78273H63.9663C63.9663 8.10633 64.021 8.38203 64.1304 8.60983C64.2443 8.83773 64.4015 9.02453 64.6021 9.17043C64.8026 9.31173 65.035 9.41653 65.2993 9.48483C65.5682 9.55323 65.8553 9.58743 66.1607 9.58743C66.5617 9.58743 66.8967 9.53043 67.1655 9.41653C67.439 9.30253 67.644 9.14303 67.7808 8.93803C67.9175 8.73293 67.9858 8.49593 67.9858 8.22703ZM72.8257 3.39403V10.7905H71.1714V3.39403H72.8257ZM71.062 1.45263C71.062 1.20203 71.144 0.994627 71.3081 0.830527C71.4767 0.661927 71.7092 0.577627 72.0054 0.577627C72.297 0.577627 72.5272 0.661927 72.6958 0.830527C72.8644 0.994627 72.9487 1.20203 72.9487 1.45263C72.9487 1.69873 72.8644 1.90383 72.6958 2.06783C72.5272 2.23193 72.297 2.31393 72.0054 2.31393C71.7092 2.31393 71.4767 2.23193 71.3081 2.06783C71.144 1.90383 71.062 1.69873 71.062 1.45263ZM79.3677 3.39403H80.8648V10.5854C80.8648 11.2508 80.7235 11.8159 80.4409 12.2807C80.1584 12.7456 79.7642 13.0988 79.2583 13.3403C78.7524 13.5864 78.1668 13.7094 77.5015 13.7094C77.2189 13.7094 76.9045 13.6684 76.5581 13.5864C76.2163 13.5044 75.8836 13.3722 75.5601 13.1899C75.2411 13.0122 74.9745 12.7775 74.7603 12.4858L75.5327 11.5151C75.797 11.8296 76.0887 12.0597 76.4077 12.2055C76.7267 12.3514 77.0617 12.4243 77.4126 12.4243C77.7909 12.4243 78.1121 12.3537 78.3765 12.2124C78.6454 12.0757 78.8527 11.8729 78.9985 11.604C79.1444 11.3351 79.2173 11.007 79.2173 10.6196V5.06883L79.3677 3.39403ZM74.3433 7.17433V7.03073C74.3433 6.47023 74.4116 5.95983 74.5483 5.49953C74.6851 5.03463 74.881 4.63593 75.1362 4.30323C75.3914 3.96603 75.7013 3.70853 76.0659 3.53073C76.4305 3.34843 76.8429 3.25733 77.3032 3.25733C77.7817 3.25733 78.1896 3.34393 78.5269 3.51713C78.8687 3.69023 79.1535 3.93863 79.3814 4.26223C79.6092 4.58123 79.787 4.96403 79.9146 5.41063C80.0467 5.85273 80.1447 6.34493 80.2085 6.88723V7.34523C80.1493 7.87383 80.049 8.35693 79.9077 8.79443C79.7664 9.23193 79.5796 9.61023 79.3472 9.92923C79.1148 10.2482 78.8276 10.4943 78.4858 10.6675C78.1486 10.8406 77.7498 10.9272 77.2896 10.9272C76.8384 10.9272 76.4305 10.8338 76.0659 10.6469C75.7059 10.4601 75.396 10.1981 75.1362 9.86083C74.881 9.52363 74.6851 9.12713 74.5483 8.67143C74.4116 8.21113 74.3433 7.71203 74.3433 7.17433ZM75.9907 7.03073V7.17433C75.9907 7.51153 76.0226 7.82603 76.0864 8.11763C76.1548 8.40933 76.2573 8.66683 76.394 8.89013C76.5353 9.10893 76.7131 9.28203 76.9273 9.40963C77.146 9.53273 77.4035 9.59423 77.6997 9.59423C78.0871 9.59423 78.4038 9.51223 78.6499 9.34813C78.9006 9.18413 79.092 8.96303 79.2241 8.68503C79.3608 8.40253 79.4566 8.08803 79.5112 7.74173V6.50443C79.4839 6.23553 79.4269 5.98483 79.3403 5.75243C79.2583 5.52003 79.1467 5.31723 79.0054 5.14403C78.8641 4.96633 78.6864 4.82963 78.4722 4.73393C78.258 4.63363 78.0051 4.58353 77.7134 4.58353C77.4172 4.58353 77.1597 4.64733 76.9409 4.77493C76.7222 4.90253 76.5422 5.07793 76.4009 5.30123C76.2642 5.52453 76.1616 5.78433 76.0933 6.08053C76.0249 6.37683 75.9907 6.69353 75.9907 7.03073ZM84.2075 4.97313V10.7905H82.5601V3.39403H84.1118L84.2075 4.97313ZM83.9136 6.81883L83.3804 6.81203C83.3849 6.28793 83.4579 5.80713 83.5991 5.36963C83.745 4.93213 83.9455 4.55613 84.2007 4.24173C84.4605 3.92723 84.7704 3.68573 85.1304 3.51713C85.4904 3.34393 85.8914 3.25733 86.3335 3.25733C86.689 3.25733 87.0103 3.30743 87.2974 3.40773C87.589 3.50343 87.8374 3.66063 88.0425 3.87943C88.2521 4.09813 88.4116 4.38293 88.521 4.73393C88.6304 5.08023 88.6851 5.50633 88.6851 6.01223V10.7905H87.0308V6.00533C87.0308 5.64993 86.9784 5.36963 86.8735 5.16453C86.7733 4.95493 86.6252 4.80683 86.4292 4.72023C86.2378 4.62903 85.9985 4.58353 85.7114 4.58353C85.4289 4.58353 85.176 4.64273 84.9526 4.76123C84.7293 4.87973 84.5402 5.04153 84.3853 5.24663C84.2349 5.45163 84.1187 5.68863 84.0366 5.95753C83.9546 6.22643 83.9136 6.51353 83.9136 6.81883ZM95.6167 3.39403V10.7905H93.9624V3.39403H95.6167ZM93.853 1.45263C93.853 1.20203 93.9351 0.994627 94.0991 0.830527C94.2677 0.661927 94.5002 0.577627 94.7964 0.577627C95.0881 0.577627 95.3182 0.661927 95.4868 0.830527C95.6554 0.994627 95.7398 1.20203 95.7398 1.45263C95.7398 1.69873 95.6554 1.90383 95.4868 2.06783C95.3182 2.23193 95.0881 2.31393 94.7964 2.31393C94.5002 2.31393 94.2677 2.23193 94.0991 2.06783C93.9351 1.90383 93.853 1.69873 93.853 1.45263ZM99.0552 4.97313V10.7905H97.4077V3.39403H98.9595L99.0552 4.97313ZM98.7612 6.81883L98.228 6.81203C98.2326 6.28793 98.3055 5.80713 98.4468 5.36963C98.5926 4.93213 98.7931 4.55613 99.0483 4.24173C99.3081 3.92723 99.618 3.68573 99.978 3.51713C100.338 3.34393 100.739 3.25733 101.181 3.25733C101.537 3.25733 101.858 3.30743 102.145 3.40773C102.437 3.50343 102.685 3.66063 102.89 3.87943C103.1 4.09813 103.259 4.38293 103.369 4.73393C103.478 5.08023 103.533 5.50633 103.533 6.01223V10.7905H101.878V6.00533C101.878 5.64993 101.826 5.36963 101.721 5.16453C101.621 4.95493 101.473 4.80683 101.277 4.72023C101.085 4.62903 100.846 4.58353 100.559 4.58353C100.276 4.58353 100.024 4.64273 99.8003 4.76123C99.577 4.87973 99.3879 5.04153 99.2329 5.24663C99.0825 5.45163 98.9663 5.68863 98.8843 5.95753C98.8023 6.22643 98.7612 6.51353 98.7612 6.81883ZM110.71 9.14993L112.419 3.39403H113.472L113.185 5.11673L111.462 10.7905H110.519L110.71 9.14993ZM109.706 3.39403L111.039 9.17723L111.148 10.7905H110.095L108.092 3.39403H109.706ZM115.072 9.10893L116.364 3.39403H117.97L115.974 10.7905H114.921L115.072 9.10893ZM113.65 3.39403L115.338 9.08153L115.55 10.7905H114.607L112.864 5.10983L112.577 3.39403H113.65ZM120.855 3.39403V10.7905H119.201V3.39403H120.855ZM119.091 1.45263C119.091 1.20203 119.173 0.994627 119.337 0.830527C119.506 0.661927 119.739 0.577627 120.035 0.577627C120.327 0.577627 120.557 0.661927 120.725 0.830527C120.894 0.994627 120.978 1.20203 120.978 1.45263C120.978 1.69873 120.894 1.90383 120.725 2.06783C120.557 2.23193 120.327 2.31393 120.035 2.31393C119.739 2.31393 119.506 2.23193 119.337 2.06783C119.173 1.90383 119.091 1.69873 119.091 1.45263ZM126.05 3.39403V4.59713H121.881V3.39403H126.05ZM123.084 1.58253H124.731V8.74663C124.731 8.97443 124.763 9.14993 124.827 9.27293C124.895 9.39143 124.989 9.47123 125.107 9.51223C125.226 9.55323 125.365 9.57373 125.524 9.57373C125.638 9.57373 125.747 9.56693 125.852 9.55323C125.957 9.53953 126.041 9.52593 126.105 9.51223L126.112 10.77C125.975 10.811 125.816 10.8475 125.634 10.8794C125.456 10.9113 125.251 10.9272 125.018 10.9272C124.64 10.9272 124.305 10.8611 124.013 10.729C123.722 10.5923 123.494 10.3712 123.33 10.0659C123.166 9.76063 123.084 9.35503 123.084 8.84913V1.58253ZM128.949 0.290527V10.7905H127.308V0.290527H128.949ZM128.662 6.81883L128.129 6.81203C128.133 6.30163 128.204 5.82993 128.341 5.39693C128.482 4.96403 128.678 4.58803 128.928 4.26903C129.184 3.94543 129.489 3.69713 129.844 3.52393C130.2 3.34623 130.594 3.25733 131.027 3.25733C131.392 3.25733 131.72 3.30743 132.011 3.40773C132.308 3.50793 132.563 3.66973 132.777 3.89303C132.991 4.11183 133.153 4.39893 133.262 4.75443C133.376 5.10533 133.433 5.53373 133.433 6.03953V10.7905H131.779V6.02593C131.779 5.67043 131.727 5.38783 131.622 5.17823C131.522 4.96863 131.373 4.81823 131.177 4.72703C130.981 4.63133 130.742 4.58353 130.46 4.58353C130.163 4.58353 129.901 4.64273 129.674 4.76123C129.45 4.87973 129.263 5.04153 129.113 5.24663C128.963 5.45163 128.849 5.68863 128.771 5.95753C128.698 6.22643 128.662 6.51353 128.662 6.81883ZM146.394 5.70463V9.50533C146.253 9.69223 146.032 9.89733 145.731 10.1206C145.435 10.3393 145.041 10.5285 144.549 10.688C144.056 10.8475 143.443 10.9272 142.71 10.9272C142.085 10.9272 141.513 10.8224 140.994 10.6128C140.474 10.3986 140.025 10.0864 139.647 9.67623C139.273 9.26613 138.984 8.76713 138.779 8.17923C138.574 7.58673 138.471 6.91223 138.471 6.15573V5.46533C138.471 4.71343 138.565 4.04343 138.752 3.45553C138.943 2.86313 139.217 2.36183 139.572 1.95163C139.927 1.54153 140.356 1.23163 140.857 1.02193C141.363 0.807827 141.935 0.700727 142.573 0.700727C143.389 0.700727 144.063 0.837427 144.596 1.11083C145.134 1.37973 145.549 1.75343 145.841 2.23193C146.132 2.71043 146.317 3.25733 146.394 3.87253H144.713C144.658 3.52623 144.551 3.21633 144.391 2.94283C144.236 2.66943 144.013 2.45523 143.721 2.30033C143.434 2.14083 143.061 2.06103 142.6 2.06103C142.204 2.06103 141.855 2.13623 141.554 2.28663C141.254 2.43703 141.003 2.65803 140.802 2.94973C140.606 3.24133 140.458 3.59683 140.358 4.01613C140.258 4.43543 140.208 4.91393 140.208 5.45163V6.15573C140.208 6.70263 140.265 7.18803 140.379 7.61183C140.497 8.03563 140.666 8.39343 140.884 8.68503C141.108 8.97673 141.379 9.19773 141.698 9.34813C142.017 9.49403 142.377 9.56693 142.778 9.56693C143.17 9.56693 143.491 9.53503 143.742 9.47123C143.993 9.40283 144.191 9.32313 144.337 9.23193C144.487 9.13623 144.603 9.04513 144.685 8.95853V6.98293H142.614V5.70463H146.394ZM147.816 7.17433V7.01713C147.816 6.48393 147.894 5.98943 148.049 5.53373C148.203 5.07343 148.427 4.67463 148.718 4.33743C149.015 3.99563 149.375 3.73133 149.799 3.54443C150.227 3.35303 150.71 3.25733 151.248 3.25733C151.79 3.25733 152.273 3.35303 152.697 3.54443C153.125 3.73133 153.488 3.99563 153.784 4.33743C154.08 4.67463 154.306 5.07343 154.461 5.53373C154.616 5.98943 154.693 6.48393 154.693 7.01713V7.17433C154.693 7.70753 154.616 8.20203 154.461 8.65773C154.306 9.11343 154.08 9.51223 153.784 9.85403C153.488 10.1912 153.128 10.4555 152.704 10.6469C152.28 10.8338 151.799 10.9272 151.261 10.9272C150.719 10.9272 150.234 10.8338 149.805 10.6469C149.382 10.4555 149.022 10.1912 148.725 9.85403C148.429 9.51223 148.203 9.11343 148.049 8.65773C147.894 8.20203 147.816 7.70753 147.816 7.17433ZM149.464 7.01713V7.17433C149.464 7.50703 149.498 7.82143 149.566 8.11763C149.634 8.41393 149.742 8.67363 149.887 8.89693C150.033 9.12033 150.22 9.29573 150.448 9.42333C150.676 9.55093 150.947 9.61473 151.261 9.61473C151.567 9.61473 151.831 9.55093 152.054 9.42333C152.282 9.29573 152.469 9.12033 152.615 8.89693C152.761 8.67363 152.868 8.41393 152.936 8.11763C153.009 7.82143 153.046 7.50703 153.046 7.17433V7.01713C153.046 6.68893 153.009 6.37903 152.936 6.08743C152.868 5.79123 152.759 5.52913 152.608 5.30123C152.462 5.07343 152.275 4.89563 152.048 4.76803C151.824 4.63593 151.558 4.56983 151.248 4.56983C150.938 4.56983 150.669 4.63593 150.441 4.76803C150.218 4.89563 150.033 5.07343 149.887 5.30123C149.742 5.52913 149.634 5.79123 149.566 6.08743C149.498 6.37903 149.464 6.68893 149.464 7.01713ZM155.759 7.17433V7.01713C155.759 6.48393 155.837 5.98943 155.992 5.53373C156.147 5.07343 156.37 4.67463 156.662 4.33743C156.958 3.99563 157.318 3.73133 157.742 3.54443C158.17 3.35303 158.653 3.25733 159.191 3.25733C159.733 3.25733 160.217 3.35303 160.64 3.54443C161.069 3.73133 161.431 3.99563 161.727 4.33743C162.023 4.67463 162.249 5.07343 162.404 5.53373C162.559 5.98943 162.636 6.48393 162.636 7.01713V7.17433C162.636 7.70753 162.559 8.20203 162.404 8.65773C162.249 9.11343 162.023 9.51223 161.727 9.85403C161.431 10.1912 161.071 10.4555 160.647 10.6469C160.223 10.8338 159.743 10.9272 159.205 10.9272C158.662 10.9272 158.177 10.8338 157.749 10.6469C157.325 10.4555 156.965 10.1912 156.669 9.85403C156.372 9.51223 156.147 9.11343 155.992 8.65773C155.837 8.20203 155.759 7.70753 155.759 7.17433ZM157.407 7.01713V7.17433C157.407 7.50703 157.441 7.82143 157.509 8.11763C157.578 8.41393 157.685 8.67363 157.831 8.89693C157.977 9.12033 158.163 9.29573 158.391 9.42333C158.619 9.55093 158.89 9.61473 159.205 9.61473C159.51 9.61473 159.774 9.55093 159.998 9.42333C160.226 9.29573 160.412 9.12033 160.558 8.89693C160.704 8.67363 160.811 8.41393 160.88 8.11763C160.953 7.82143 160.989 7.50703 160.989 7.17433V7.01713C160.989 6.68893 160.953 6.37903 160.88 6.08743C160.811 5.79123 160.702 5.52913 160.551 5.30123C160.406 5.07343 160.219 4.89563 159.991 4.76803C159.768 4.63593 159.501 4.56983 159.191 4.56983C158.881 4.56983 158.612 4.63593 158.384 4.76803C158.161 4.89563 157.977 5.07343 157.831 5.30123C157.685 5.52913 157.578 5.79123 157.509 6.08743C157.441 6.37903 157.407 6.68893 157.407 7.01713ZM168.755 3.39403H170.252V10.5854C170.252 11.2508 170.11 11.8159 169.828 12.2807C169.545 12.7456 169.151 13.0988 168.645 13.3403C168.139 13.5864 167.554 13.7094 166.888 13.7094C166.606 13.7094 166.291 13.6684 165.945 13.5864C165.603 13.5044 165.271 13.3722 164.947 13.1899C164.628 13.0122 164.361 12.7775 164.147 12.4858L164.92 11.5151C165.184 11.8296 165.476 12.0597 165.795 12.2055C166.114 12.3514 166.449 12.4243 166.8 12.4243C167.178 12.4243 167.499 12.3537 167.763 12.2124C168.032 12.0757 168.24 11.8729 168.385 11.604C168.531 11.3351 168.604 11.007 168.604 10.6196V5.06883L168.755 3.39403ZM163.73 7.17433V7.03073C163.73 6.47023 163.799 5.95983 163.935 5.49953C164.072 5.03463 164.268 4.63593 164.523 4.30323C164.778 3.96603 165.088 3.70853 165.453 3.53073C165.817 3.34843 166.23 3.25733 166.69 3.25733C167.169 3.25733 167.577 3.34393 167.914 3.51713C168.256 3.69023 168.54 3.93863 168.768 4.26223C168.996 4.58123 169.174 4.96403 169.301 5.41063C169.434 5.85273 169.532 6.34493 169.595 6.88723V7.34523C169.536 7.87383 169.436 8.35693 169.295 8.79443C169.153 9.23193 168.967 9.61023 168.734 9.92923C168.502 10.2482 168.215 10.4943 167.873 10.6675C167.536 10.8406 167.137 10.9272 166.676 10.9272C166.225 10.9272 165.817 10.8338 165.453 10.6469C165.093 10.4601 164.783 10.1981 164.523 9.86083C164.268 9.52363 164.072 9.12713 163.935 8.67143C163.799 8.21113 163.73 7.71203 163.73 7.17433ZM165.378 7.03073V7.17433C165.378 7.51153 165.41 7.82603 165.473 8.11763C165.542 8.40933 165.644 8.66683 165.781 8.89013C165.922 9.10893 166.1 9.28203 166.314 9.40963C166.533 9.53273 166.79 9.59423 167.087 9.59423C167.474 9.59423 167.791 9.51223 168.037 9.34813C168.287 9.18413 168.479 8.96303 168.611 8.68503C168.748 8.40253 168.843 8.08803 168.898 7.74173V6.50443C168.871 6.23553 168.814 5.98483 168.727 5.75243C168.645 5.52003 168.534 5.31723 168.392 5.14403C168.251 4.96633 168.073 4.82963 167.859 4.73393C167.645 4.63363 167.392 4.58353 167.1 4.58353C166.804 4.58353 166.547 4.64733 166.328 4.77493C166.109 4.90253 165.929 5.07793 165.788 5.30123C165.651 5.52453 165.549 5.78433 165.48 6.08053C165.412 6.37683 165.378 6.69353 165.378 7.03073ZM173.724 0.290527V10.7905H172.07V0.290527H173.724ZM178.79 10.9272C178.243 10.9272 177.748 10.8384 177.306 10.6606C176.869 10.4783 176.495 10.2254 176.185 9.90183C175.88 9.57833 175.645 9.19773 175.481 8.76023C175.317 8.32273 175.235 7.85103 175.235 7.34523V7.07173C175.235 6.49303 175.319 5.96893 175.488 5.49953C175.657 5.03013 175.891 4.62903 176.192 4.29643C176.493 3.95913 176.848 3.70163 177.259 3.52393C177.669 3.34623 178.113 3.25733 178.592 3.25733C179.12 3.25733 179.583 3.34623 179.979 3.52393C180.376 3.70163 180.704 3.95233 180.964 4.27593C181.228 4.59493 181.424 4.97543 181.551 5.41753C181.684 5.85953 181.75 6.34713 181.75 6.88033V7.58443H176.035V6.40183H180.123V6.27193C180.114 5.97573 180.054 5.69773 179.945 5.43803C179.84 5.17823 179.678 4.96863 179.46 4.80913C179.241 4.64953 178.949 4.56983 178.585 4.56983C178.311 4.56983 178.067 4.62903 177.853 4.74753C177.644 4.86153 177.468 5.02783 177.327 5.24663C177.186 5.46533 177.076 5.72963 176.999 6.03953C176.926 6.34493 176.889 6.68893 176.889 7.07173V7.34523C176.889 7.66883 176.933 7.96953 177.019 8.24753C177.11 8.52103 177.243 8.76023 177.416 8.96533C177.589 9.17043 177.799 9.33223 178.045 9.45073C178.291 9.56463 178.571 9.62163 178.885 9.62163C179.282 9.62163 179.635 9.54183 179.945 9.38233C180.255 9.22283 180.524 8.99723 180.752 8.70553L181.62 9.54643C181.46 9.77883 181.253 10.0021 180.998 10.2163C180.743 10.4259 180.43 10.5968 180.061 10.729C179.697 10.8611 179.273 10.9272 178.79 10.9272Z" fill="#1F1F1F"/>
</svg>
