<svg width="32" height="32" viewBox="0 0 32 32" fill="none" xmlns="http://www.w3.org/2000/svg">
<path d="M14.9695 4.91617C15.0898 4.78887 15.1838 4.63913 15.2462 4.47549C15.3086 4.31186 15.3382 4.13753 15.3333 3.96246C15.3283 3.78739 15.2889 3.61501 15.2174 3.45516C15.1458 3.29531 15.0434 3.15113 14.9161 3.03084C14.7888 2.91055 14.6391 2.8165 14.4755 2.75408C14.3118 2.69166 14.1375 2.66208 13.9624 2.66704C13.7874 2.67199 13.615 2.71138 13.4551 2.78295C13.2953 2.85452 13.1511 2.95687 13.0308 3.08417L1.69746 15.0842C1.46342 15.3317 1.33301 15.6595 1.33301 16.0002C1.33301 16.3408 1.46342 16.6686 1.69746 16.9162L13.0308 28.9175C13.1503 29.0476 13.2944 29.1526 13.4549 29.2265C13.6153 29.3004 13.7888 29.3417 13.9654 29.348C14.1419 29.3543 14.3179 29.3254 14.4832 29.2631C14.6485 29.2007 14.7997 29.1062 14.9281 28.9849C15.0566 28.8636 15.1596 28.7181 15.2313 28.5566C15.303 28.3952 15.3419 28.2211 15.3457 28.0445C15.3496 27.8679 15.3183 27.6923 15.2537 27.5279C15.1891 27.3635 15.0925 27.2136 14.9695 27.0868L4.50013 16.0002L14.9695 4.91617Z" fill="#454545"/>
</svg>
