<svg width="72" height="44" viewBox="0 0 72 44" fill="none" xmlns="http://www.w3.org/2000/svg">
<mask id="path-1-inside-1_1142_4762" fill="white">
<path d="M0 0.999999C0 0.447714 0.447715 0 1 0V44C0.447715 44 0 43.5523 0 43V0.999999Z"/>
</mask>
<path d="M0 0.999999C0 0.447714 0.447715 0 1 0V44C0.447715 44 0 43.5523 0 43V0.999999Z" fill="#F2F2F2"/>
<path d="M1 0H0V44H1H2V0H1ZM0 43H1V0.999999H0H-1V43H0ZM1 44V43H0H-1C-1 44.1046 -0.10457 45 1 45V44ZM1 0V-1C-0.104568 -1 -1 -0.104572 -1 0.999999H0H1V1V0Z" fill="#004798" mask="url(#path-1-inside-1_1142_4762)"/>
<path d="M0 0H67C69.7614 0 72 2.23858 72 5V39C72 41.7614 69.7614 44 67 44H0V0Z" fill="#004798"/>
<path fill-rule="evenodd" clip-rule="evenodd" d="M32.7 11.6C27.6742 11.6 23.6 15.6742 23.6 20.7C23.6 25.7258 27.6742 29.8 32.7 29.8C37.7258 29.8 41.8 25.7258 41.8 20.7C41.8 15.6742 37.7258 11.6 32.7 11.6ZM21 20.7C21 14.2383 26.2383 9 32.7 9C39.1617 9 44.4 14.2383 44.4 20.7C44.4 23.4625 43.4426 26.0014 41.8415 28.003L46.6192 32.7808C47.1269 33.2884 47.1269 34.1116 46.6192 34.6192C46.1116 35.1269 45.2884 35.1269 44.7808 34.6192L40.003 29.8415C38.0014 31.4426 35.4625 32.4 32.7 32.4C26.2383 32.4 21 27.1617 21 20.7Z" fill="#F9F9F9"/>
</svg>
