<svg width="35" height="35" viewBox="0 0 35 35" fill="none" xmlns="http://www.w3.org/2000/svg">
<g clip-path="url(#clip0_1023_1546)">
<path fill-rule="evenodd" clip-rule="evenodd" d="M14.0468 6.147C14.0409 6.17186 14.0409 6.18359 14.0409 6.18359V6.89788H21.1837V6.18359C21.1837 6.18359 21.1838 6.17186 21.1778 6.147C21.1718 6.12185 21.1603 6.08584 21.1392 6.04067C21.0956 5.94714 21.0218 5.83786 20.9185 5.73454C20.6835 5.49956 20.4868 5.46931 20.4694 5.46931H14.7552C14.7378 5.46931 14.5411 5.49956 14.3061 5.73454C14.2028 5.83786 14.129 5.94714 14.0854 6.04067C14.0643 6.08584 14.0528 6.12185 14.0468 6.147ZM25.4694 6.89788V6.18359C25.4694 4.77238 24.7854 3.54053 23.949 2.70408C23.1125 1.86762 21.8807 1.18359 20.4694 1.18359H14.7552C13.344 1.18359 12.1121 1.86762 11.2756 2.70408C10.4392 3.54053 9.75516 4.77238 9.75516 6.18359V6.89788H4.75516C3.57169 6.89788 2.6123 7.85727 2.6123 9.04074C2.6123 10.2242 3.57169 11.1836 4.75516 11.1836H5.46945V29.0407C5.46945 30.4519 6.15348 31.6838 6.98993 32.5202C7.82639 33.3567 9.05824 34.0407 10.4694 34.0407H24.7552C26.1664 34.0407 27.3982 33.3567 28.2347 32.5202C29.0711 31.6838 29.7552 30.4519 29.7552 29.0407V11.1836H30.4694C31.6529 11.1836 32.6123 10.2242 32.6123 9.04074C32.6123 7.85727 31.6529 6.89788 30.4694 6.89788H25.4694ZM25.4694 11.1836V29.0407C25.4694 29.0407 25.4695 29.0525 25.4635 29.0773C25.4576 29.1025 25.446 29.1385 25.4249 29.1837C25.3813 29.2772 25.3075 29.3865 25.2042 29.4898C24.9692 29.7248 24.7725 29.755 24.7552 29.755H10.4694C10.4521 29.755 10.2554 29.7248 10.0204 29.4898C9.91707 29.3865 9.84331 29.2772 9.79966 29.1837C9.77858 29.1385 9.76705 29.1025 9.76106 29.0773C9.75514 29.0525 9.75516 29.0407 9.75516 29.0407V11.1836H25.4694ZM14.7552 14.0407C15.9386 14.0407 16.898 15.0001 16.898 16.1836V24.755C16.898 25.9385 15.9386 26.8979 14.7552 26.8979C13.5717 26.8979 12.6123 25.9385 12.6123 24.755V16.1836C12.6123 15.0001 13.5717 14.0407 14.7552 14.0407ZM20.4694 14.0407C21.6529 14.0407 22.6123 15.0001 22.6123 16.1836V24.755C22.6123 25.9385 21.6529 26.8979 20.4694 26.8979C19.286 26.8979 18.3266 25.9385 18.3266 24.755V16.1836C18.3266 15.0001 19.286 14.0407 20.4694 14.0407Z" fill="#E8F3FF"/>
</g>
<defs>
<clipPath id="clip0_1023_1546">
<rect width="34.2857" height="34.2857" fill="white" transform="translate(0.469238 0.46936)"/>
</clipPath>
</defs>
</svg>
