<svg width="24" height="24" viewBox="0 0 24 24" fill="none" xmlns="http://www.w3.org/2000/svg">
<path fill-rule="evenodd" clip-rule="evenodd" d="M11.0246 1.51156C11.2117 1.13794 11.5958 0.903998 12.0136 0.909172C12.6495 0.917047 13.2755 1.06853 13.8446 1.3523C14.4138 1.63606 14.9115 2.04478 15.3005 2.54791C15.6895 3.05105 15.9598 3.63558 16.0912 4.25785C16.2224 4.8794 16.2117 5.52255 16.0597 6.13934C16.0595 6.14006 16.0594 6.14077 16.0592 6.14148L15.3875 8.90909H19.8301C20.3099 8.90909 20.7832 9.02081 21.2124 9.2354C21.6416 9.45 22.0149 9.76157 22.3028 10.1455C22.5907 10.5293 22.7853 10.975 22.8711 11.4471C22.957 11.9192 22.9317 12.4048 22.7974 12.8655L20.4675 20.865C20.2802 21.5071 19.8897 22.0715 19.3546 22.4727C18.8196 22.874 18.1689 23.0909 17.5001 23.0909H4.00009C3.18033 23.0909 2.39414 22.7653 1.81449 22.1856C1.23483 21.6059 0.90918 20.8198 0.90918 20V12C0.90918 11.1802 1.23483 10.3941 1.81449 9.81439C2.39414 9.23474 3.18033 8.90909 4.00009 8.90909H6.75951C6.92864 8.909 7.09439 8.86173 7.23813 8.7726C7.38186 8.68347 7.49788 8.556 7.57315 8.40454L7.57463 8.40156L11.0246 1.51156ZM5.90918 11.0909H4.00009C3.75898 11.0909 3.52775 11.1867 3.35726 11.3572C3.18678 11.5277 3.091 11.7589 3.091 12V20C3.091 20.2411 3.18678 20.4723 3.35726 20.6428C3.52775 20.8133 3.75898 20.9091 4.00009 20.9091H5.90918V11.0909ZM8.091 20.9091H17.5001C17.6968 20.9091 17.8882 20.8453 18.0455 20.7273C18.2028 20.6093 18.3176 20.4436 18.3727 20.2549M18.3727 20.2549L20.7027 12.2549C20.7422 12.1195 20.7498 11.9762 20.7245 11.8374C20.6993 11.6985 20.642 11.5674 20.5574 11.4545C20.4727 11.3416 20.3629 11.25 20.2366 11.1869C20.1104 11.1238 19.9712 11.0909 19.8301 11.0909H14.0001C13.6655 11.0909 13.3494 10.9373 13.1425 10.6743C12.9357 10.4113 12.861 10.0679 12.94 9.74268L13.94 5.62268L13.941 5.61851C14.0146 5.32023 14.0199 5.00916 13.9564 4.70855C13.893 4.40793 13.7624 4.12555 13.5745 3.88249C13.3865 3.63943 13.1461 3.44198 12.8711 3.30489C12.7894 3.26416 12.7053 3.22907 12.6194 3.19976L9.52703 9.37545C9.52676 9.37599 9.5265 9.37652 9.52623 9.37706C9.27032 9.89132 8.87616 10.3241 8.38796 10.6268C8.29172 10.6865 8.19257 10.7407 8.091 10.7892V20.9091" fill="#004798"/>
</svg>
