<svg width="21" height="20" viewBox="0 0 21 20" fill="none" xmlns="http://www.w3.org/2000/svg">
<g clip-path="url(#clip0_1236_2063)">
<path d="M0.711914 17.5658V3.33326C0.711914 2.10596 1.70684 1.11103 2.93414 1.11103H10.1303L10.2055 1.11465C10.5791 1.15251 10.8711 1.46819 10.8711 1.85178C10.8711 2.23536 10.5791 2.55104 10.2055 2.5889L10.1303 2.59252H2.93414C2.52504 2.59252 2.1934 2.92416 2.1934 3.33326V17.5658C2.1934 17.9749 2.52504 18.3065 2.93414 18.3065H17.1138C17.5229 18.3065 17.8546 17.9749 17.8546 17.5658V11.111C17.8546 10.702 18.1863 10.3704 18.5953 10.3703C19.0044 10.3703 19.336 10.7019 19.336 11.111V17.5658C19.336 18.793 18.3411 19.788 17.1138 19.788H2.93414C1.70684 19.788 0.711914 18.793 0.711914 17.5658ZM16.329 0.166301C16.6199 -0.0711811 17.0494 -0.0543268 17.3207 0.216938L17.3272 0.223448C17.328 0.224219 17.3286 0.225555 17.3294 0.226342C17.3302 0.227148 17.3315 0.227689 17.3323 0.228512C17.3331 0.229326 17.3336 0.230575 17.3345 0.231405C17.3353 0.232223 17.3365 0.232742 17.3373 0.233575C17.3382 0.234412 17.3387 0.235617 17.3395 0.236469C17.3404 0.237303 17.3416 0.23779 17.3424 0.238639L17.3453 0.241533C17.3461 0.24237 17.3466 0.243575 17.3475 0.244426L17.3619 0.258894C17.3629 0.259894 17.3645 0.260772 17.3656 0.261787L17.3779 0.274085C17.3789 0.275132 17.3797 0.27664 17.3808 0.277702C17.3818 0.278749 17.3833 0.279534 17.3844 0.280595L17.388 0.284212C17.3891 0.28529 17.3898 0.286737 17.3909 0.287829C17.392 0.288906 17.3934 0.289632 17.3945 0.290722L17.4198 0.316041C17.4211 0.317297 17.4222 0.31911 17.4234 0.320381C17.4247 0.321648 17.4265 0.322717 17.4278 0.323998L17.4314 0.327615C17.4327 0.328899 17.4337 0.330657 17.435 0.331955C17.4363 0.333259 17.438 0.334254 17.4393 0.335572C17.4407 0.336882 17.4416 0.338589 17.443 0.339912C17.4443 0.341214 17.446 0.342215 17.4473 0.343529L17.4516 0.347869C17.453 0.349189 17.4539 0.350877 17.4553 0.35221C17.4566 0.353522 17.4583 0.354502 17.4596 0.355827L17.49 0.386209C17.4915 0.387701 17.4928 0.389767 17.4943 0.391272C17.4958 0.392769 17.4979 0.394103 17.4994 0.395612L17.5037 0.399953C17.5053 0.401484 17.5065 0.403472 17.5081 0.405016C17.5096 0.406545 17.5116 0.407815 17.5131 0.409357C17.5147 0.410882 17.5159 0.412882 17.5175 0.41442C17.519 0.415955 17.521 0.417213 17.5225 0.418761C17.5241 0.420318 17.5253 0.422255 17.5269 0.423824C17.5284 0.425386 17.5304 0.426591 17.5319 0.428165L17.537 0.433228C17.5386 0.43479 17.5398 0.436719 17.5413 0.438292L17.5464 0.443356C17.548 0.444917 17.5499 0.446123 17.5515 0.447696L17.5768 0.473014C17.5785 0.474733 17.5801 0.47707 17.5819 0.478801L17.5869 0.483865C17.5887 0.485608 17.5909 0.487174 17.5927 0.488928L17.5978 0.493992C17.5995 0.495757 17.6011 0.498002 17.6028 0.499779C17.6046 0.501557 17.6068 0.503053 17.6086 0.504843C17.6104 0.506609 17.6119 0.508852 17.6137 0.51063C17.6154 0.512395 17.6177 0.513918 17.6195 0.515693C17.6212 0.517468 17.6227 0.519695 17.6245 0.521481C17.6263 0.523276 17.6285 0.524737 17.6303 0.526544C17.6321 0.528347 17.6336 0.530517 17.6354 0.532331C17.6372 0.534109 17.6394 0.535606 17.6412 0.537395L17.6527 0.548969C17.6545 0.550772 17.656 0.552942 17.6578 0.554756L17.6694 0.56633C17.6712 0.568134 17.6734 0.56958 17.6752 0.571394L17.681 0.577181C17.6829 0.579114 17.6848 0.581747 17.6867 0.583691L17.6983 0.595265C17.7003 0.59723 17.7028 0.599077 17.7048 0.601052L17.7164 0.612626C17.7184 0.614618 17.7202 0.617135 17.7222 0.619137C17.7242 0.621143 17.7267 0.622908 17.7287 0.624924L17.7345 0.630711C17.7365 0.632697 17.7383 0.635226 17.7403 0.637221C17.7423 0.639226 17.7448 0.640994 17.7468 0.643008C17.7488 0.645021 17.7505 0.647496 17.7526 0.649519C17.7546 0.65153 17.7571 0.653285 17.7591 0.655306L17.7656 0.661816C17.7676 0.663837 17.7693 0.666297 17.7714 0.668327C17.7734 0.670372 17.7758 0.672059 17.7779 0.674114L17.7844 0.680624C17.7864 0.682669 17.7881 0.68508 17.7902 0.687134C17.7922 0.689176 17.7946 0.690871 17.7967 0.692921L17.8618 0.758026C17.864 0.760237 17.8661 0.763039 17.8683 0.765259L17.8748 0.77177C17.877 0.773998 17.8798 0.776043 17.8821 0.77828L17.8886 0.784791C17.8908 0.787036 17.8928 0.789771 17.8951 0.792024C17.8973 0.794274 17.9 0.796277 17.9023 0.798535L17.9088 0.805045C17.911 0.807274 17.9131 0.810043 17.9153 0.812279C17.9176 0.814525 17.9203 0.816536 17.9226 0.818789C17.9248 0.821045 17.9268 0.823761 17.9291 0.826023C17.9313 0.82828 17.934 0.83027 17.9363 0.832534L17.9573 0.853512C17.9596 0.855799 17.9615 0.858451 17.9638 0.860746C17.9661 0.863013 17.9688 0.864981 17.971 0.867256L17.9855 0.881724C17.9878 0.884011 17.9897 0.886663 17.992 0.888957C17.9943 0.891243 17.9969 0.893175 17.9992 0.895468L18.086 0.982273C18.0885 0.984722 18.0908 0.987776 18.0933 0.990231L18.1005 0.997464C18.103 0.999925 18.106 1.00223 18.1085 1.0047L18.1229 1.01917C18.1254 1.02162 18.1277 1.02466 18.1302 1.02712C18.1327 1.02961 18.1356 1.03187 18.1381 1.03436L18.1454 1.04159C18.1478 1.04406 18.1501 1.04707 18.1526 1.04955C18.1551 1.05205 18.158 1.05427 18.1606 1.05678C18.1631 1.05929 18.1653 1.06223 18.1678 1.06474C18.1703 1.06723 18.1732 1.06948 18.1757 1.07197L18.2061 1.10235C18.2086 1.10484 18.2109 1.10782 18.2134 1.11031C18.2159 1.11282 18.2188 1.11504 18.2213 1.11755C18.2238 1.12007 18.226 1.12297 18.2286 1.1255C18.2311 1.12803 18.234 1.1302 18.2365 1.13274L18.2445 1.14069C18.247 1.14319 18.2492 1.14615 18.2517 1.14865C18.2542 1.15118 18.2571 1.15335 18.2597 1.15588L18.2676 1.16384C18.2701 1.16635 18.2723 1.16929 18.2748 1.1718C18.2774 1.17433 18.2803 1.1765 18.2828 1.17903L18.2908 1.18699C18.2933 1.18952 18.2955 1.19241 18.298 1.19495L18.306 1.2029C18.3085 1.20543 18.3114 1.2076 18.3139 1.21014L18.3298 1.22605C18.3324 1.22858 18.3345 1.23148 18.3371 1.23401L18.353 1.24992C18.3555 1.25245 18.3584 1.25462 18.3609 1.25716L18.4803 1.37652C18.483 1.37919 18.4856 1.38252 18.4882 1.3852L18.5042 1.40111C18.5068 1.40379 18.5102 1.40638 18.5128 1.40907L18.5367 1.43294C18.5394 1.43563 18.542 1.43893 18.5447 1.44162L18.5526 1.44958C18.5553 1.45227 18.5586 1.45484 18.5613 1.45753L18.5852 1.48141C18.5879 1.4841 18.5904 1.48739 18.5931 1.49009C18.5958 1.49279 18.5991 1.49534 18.6018 1.49804L18.6177 1.51396C18.6204 1.51667 18.623 1.51993 18.6257 1.52264C18.6284 1.52534 18.6317 1.52789 18.6344 1.5306L18.6503 1.54651C18.653 1.54922 18.6555 1.55247 18.6582 1.55519C18.6609 1.5579 18.6642 1.56044 18.6669 1.56315L18.6828 1.57906C18.6855 1.58177 18.6881 1.58503 18.6908 1.58774C18.6935 1.59046 18.6968 1.59298 18.6995 1.5957L18.7074 1.60366C18.7101 1.60638 18.7127 1.60962 18.7154 1.61234L18.7233 1.62029C18.7261 1.62302 18.7293 1.62553 18.732 1.62825L18.74 1.63621C18.7427 1.63892 18.7452 1.64217 18.7479 1.64489C18.7507 1.64761 18.7539 1.65012 18.7566 1.65285L18.7646 1.6608C18.7673 1.66353 18.7698 1.66676 18.7725 1.66948C18.7752 1.67219 18.7785 1.67474 18.7812 1.67744L18.7971 1.69336C18.7998 1.69606 18.8024 1.69933 18.8051 1.70204C18.8078 1.70476 18.811 1.70727 18.8138 1.70999L18.8217 1.71795C18.8244 1.72067 18.827 1.72391 18.8297 1.72663C18.8324 1.72934 18.8357 1.73188 18.8384 1.73459L18.8543 1.7505C18.857 1.7532 18.8595 1.75648 18.8622 1.75918C18.865 1.7619 18.8682 1.76442 18.8709 1.76714L18.8789 1.7751C18.8816 1.77782 18.8841 1.78106 18.8868 1.78378L18.8948 1.79174C18.8975 1.79445 18.9007 1.79698 18.9035 1.79969L18.9114 1.80765C18.9141 1.81036 18.9167 1.81362 18.9194 1.81633C18.9221 1.81903 18.9254 1.82159 18.9281 1.82429L18.944 1.8402C18.9467 1.84291 18.9492 1.84618 18.9519 1.84888L18.9599 1.85684C18.9626 1.85954 18.9659 1.86209 18.9686 1.8648L18.9845 1.88071C18.9872 1.88341 18.9897 1.88669 18.9924 1.88939L19.0004 1.89735C19.0031 1.90005 19.0064 1.90261 19.0091 1.90531L19.0329 1.92918C19.0356 1.93187 19.0382 1.93517 19.0409 1.93786L19.0489 1.94581C19.0515 1.9485 19.0549 1.95109 19.0575 1.95377L19.1212 2.01743C19.1239 2.02009 19.1265 2.02345 19.1292 2.02611L19.1451 2.04202C19.1476 2.04456 19.1505 2.04673 19.153 2.04926L19.2087 2.10496C19.2113 2.10749 19.2134 2.11039 19.216 2.11292L19.2319 2.12883C19.2344 2.13136 19.2373 2.13353 19.2398 2.13606L19.2558 2.15198C19.2583 2.15451 19.2605 2.15741 19.263 2.15994C19.2655 2.16246 19.2684 2.16464 19.2709 2.16717L19.2869 2.18308C19.2894 2.18559 19.2916 2.18854 19.2941 2.19104C19.2966 2.19357 19.2995 2.19574 19.302 2.19827L19.31 2.20623C19.3125 2.20873 19.3147 2.21169 19.3172 2.21419C19.3198 2.21672 19.3227 2.2189 19.3252 2.22142C19.3277 2.22396 19.3299 2.22685 19.3324 2.22938C19.3349 2.2319 19.3379 2.2341 19.3404 2.23661L19.386 2.28219C19.3885 2.28469 19.3907 2.28765 19.3932 2.29014C19.3957 2.29265 19.3986 2.29487 19.4011 2.29738C19.4036 2.29987 19.4059 2.30285 19.4084 2.30533C19.4108 2.30779 19.4139 2.31012 19.4163 2.31257L19.4308 2.32704C19.4333 2.32949 19.4356 2.33254 19.438 2.33499C19.4405 2.33747 19.4435 2.33976 19.446 2.34223L19.4605 2.35669C19.4629 2.35915 19.4652 2.3622 19.4677 2.36465L19.4749 2.37189C19.4774 2.37433 19.4805 2.37668 19.4829 2.37912L19.548 2.44422C19.5503 2.44652 19.5522 2.44917 19.5545 2.45146L19.5617 2.45869C19.564 2.46099 19.5667 2.46291 19.569 2.4652L19.5762 2.47244C19.5785 2.47473 19.5804 2.47738 19.5827 2.47967L19.59 2.4869C19.5922 2.4892 19.5949 2.49113 19.5972 2.49341C19.5995 2.49571 19.6014 2.49836 19.6037 2.50065C19.606 2.50291 19.6087 2.5049 19.6109 2.50716L19.6182 2.51439C19.6204 2.51665 19.6224 2.51937 19.6247 2.52163C19.6269 2.52389 19.6297 2.52588 19.6319 2.52814C19.6342 2.53039 19.6362 2.53312 19.6384 2.53537C19.6407 2.53762 19.6434 2.53964 19.6457 2.54188L19.6522 2.54839C19.6544 2.55063 19.6564 2.55339 19.6587 2.55562C19.6609 2.55788 19.6637 2.55989 19.6659 2.56213L19.6724 2.56864C19.6747 2.57088 19.6767 2.57365 19.6789 2.57588C19.6812 2.57811 19.6839 2.58016 19.6862 2.58239L19.7057 2.60192C19.7079 2.60412 19.71 2.60696 19.7122 2.60915L19.7382 2.6352C19.7403 2.63725 19.7427 2.63894 19.7448 2.64098L19.7643 2.66051C19.7663 2.66257 19.768 2.66498 19.7701 2.66702L19.7766 2.67353C19.7786 2.67559 19.781 2.67728 19.7831 2.67932C19.7851 2.68137 19.7868 2.68379 19.7889 2.68583C19.7909 2.68785 19.7934 2.68961 19.7954 2.69162L19.8019 2.69813C19.8039 2.70015 19.8057 2.70263 19.8077 2.70464C19.8097 2.70666 19.8122 2.70842 19.8142 2.71043L19.8323 2.72851C19.8343 2.73052 19.8361 2.73302 19.8381 2.73502L19.8439 2.74081C19.8458 2.7428 19.8484 2.74462 19.8504 2.7466L19.8619 2.75817C19.8639 2.76013 19.8658 2.76273 19.8677 2.76468L19.8909 2.78783C19.8927 2.78964 19.8949 2.79109 19.8967 2.79289L19.9082 2.80447C19.9101 2.80628 19.9115 2.80845 19.9133 2.81025C19.9151 2.81204 19.9173 2.81354 19.9191 2.81532L19.9249 2.8211C19.9267 2.82292 19.9281 2.82509 19.9299 2.82689C19.9317 2.82869 19.9339 2.83017 19.9357 2.83195C19.9375 2.83374 19.939 2.83597 19.9408 2.83774C19.9426 2.83952 19.9448 2.84104 19.9466 2.84281C19.9484 2.84459 19.9499 2.84682 19.9516 2.84859C19.9534 2.85038 19.9557 2.85188 19.9574 2.85366L19.9625 2.85872C19.9642 2.86048 19.9658 2.86276 19.9676 2.86451C19.9693 2.86626 19.9716 2.86783 19.9733 2.86957L20.0139 2.91008C20.0154 2.91165 20.0166 2.91358 20.0182 2.91514C20.0198 2.91671 20.0217 2.91793 20.0233 2.91948L20.0283 2.92455C20.0299 2.92612 20.0311 2.92805 20.0327 2.92961C20.0342 2.93117 20.0362 2.9324 20.0377 2.93395C20.0393 2.9355 20.0405 2.93748 20.0421 2.93902C20.0436 2.94056 20.0456 2.94183 20.0471 2.94336C20.0487 2.94491 20.0499 2.94688 20.0515 2.94842C20.053 2.94996 20.055 2.95124 20.0565 2.95276L20.0609 2.9571C20.0624 2.95861 20.0637 2.96066 20.0652 2.96216L20.0696 2.9665C20.071 2.96799 20.0731 2.96937 20.0746 2.97084L20.092 2.9882C20.0933 2.98954 20.0943 2.99123 20.0956 2.99255C20.0969 2.99387 20.0986 2.99485 20.0999 2.99616L20.1086 3.00484C20.1099 3.00614 20.1109 3.00789 20.1122 3.00918C20.1135 3.0105 20.1153 3.0115 20.1166 3.0128C20.1179 3.01412 20.1189 3.01584 20.1202 3.01714C20.1215 3.01845 20.1232 3.01946 20.1245 3.02076L20.1281 3.02437C20.1294 3.02564 20.1305 3.02746 20.1318 3.02871C20.133 3.02999 20.1348 3.03107 20.1361 3.03233L20.147 3.04318C20.1482 3.0444 20.1494 3.04632 20.1506 3.04752C20.1517 3.04861 20.1531 3.04934 20.1542 3.05042L20.165 3.06127C20.1661 3.06236 20.1669 3.0638 20.1679 3.06488C20.169 3.06596 20.1705 3.06672 20.1715 3.06778L20.1752 3.07139C20.1762 3.07245 20.177 3.07397 20.1781 3.07501C20.1791 3.07606 20.1806 3.07687 20.1817 3.0779L20.1846 3.0808C20.1856 3.08183 20.1864 3.08339 20.1875 3.08441C20.1885 3.08545 20.1901 3.08628 20.1911 3.08731L20.2142 3.11046C20.2151 3.11128 20.2156 3.11254 20.2164 3.11335C20.2173 3.1142 20.2185 3.11468 20.2193 3.11552C20.2201 3.11637 20.2206 3.11758 20.2215 3.11841C20.2223 3.11925 20.2235 3.11976 20.2244 3.12058C20.2252 3.12141 20.2257 3.12266 20.2265 3.12348C20.2273 3.12428 20.2286 3.12486 20.2294 3.12565L20.2338 3.12999C20.2345 3.13075 20.2352 3.13213 20.2359 3.13288L20.2424 3.13939C20.243 3.14 20.244 3.14024 20.2446 3.14084L20.249 3.14518C20.2495 3.14577 20.2498 3.14677 20.2504 3.14735C20.251 3.14796 20.252 3.1482 20.2526 3.1488C20.2532 3.14941 20.2534 3.15037 20.254 3.15097C20.2546 3.15156 20.2556 3.15184 20.2562 3.15241L20.2576 3.15386C20.2582 3.1544 20.2586 3.1555 20.2591 3.15603C20.2596 3.15657 20.2607 3.15695 20.2612 3.15748L20.2685 3.16471L20.2692 3.16616L20.2707 3.16688L20.2721 3.16833L20.2728 3.16977L20.2743 3.1705L20.275 3.17122L20.2757 3.17267L20.2772 3.17339L20.2808 3.17701V3.17773H20.2815L20.2829 3.17918V3.1799H20.2837L20.3329 3.23415C20.4408 3.36594 20.5 3.53178 20.5 3.70363C20.5 3.9 20.4225 4.08846 20.2837 4.22735L10.654 13.857C10.5534 13.9576 10.4257 14.0273 10.2866 14.0574L6.50691 14.8741C6.26087 14.9272 6.0042 14.8517 5.82621 14.6737C5.64834 14.4957 5.57346 14.2396 5.62655 13.9937L6.44325 10.214L6.47291 10.112C6.50983 10.0128 6.56748 9.92205 6.6429 9.84657L16.2725 0.216938L16.329 0.166301ZM7.84444 10.7399L7.31637 13.1828L9.75995 12.6547L18.7118 3.7029L18.7103 3.70146C18.7083 3.69941 18.7059 3.69772 18.7038 3.69567L18.6582 3.6501C18.656 3.6479 18.6539 3.64507 18.6517 3.64286L18.6452 3.63635C18.643 3.63414 18.6402 3.63207 18.638 3.62984L18.625 3.61682C18.6227 3.6146 18.6207 3.61182 18.6185 3.60959C18.6162 3.60734 18.6135 3.60533 18.6112 3.60308L18.591 3.58282C18.5887 3.58057 18.5867 3.57785 18.5845 3.57559C18.5822 3.57333 18.5795 3.57134 18.5772 3.56908L18.5562 3.5481C18.554 3.54581 18.552 3.54316 18.5497 3.54087C18.5474 3.53858 18.5448 3.53665 18.5425 3.53436L18.5353 3.52712C18.533 3.52484 18.531 3.52218 18.5288 3.51989L18.5215 3.51266C18.5192 3.51037 18.5166 3.50844 18.5143 3.50614L18.4926 3.48444C18.4903 3.48216 18.4884 3.4795 18.4861 3.47721L18.4427 3.43381C18.4402 3.43137 18.4372 3.42901 18.4347 3.42657L18.413 3.40487C18.4106 3.40241 18.4082 3.39938 18.4058 3.39691L18.3985 3.38968C18.3961 3.38721 18.3931 3.38492 18.3906 3.38245L18.3834 3.37521C18.3809 3.37273 18.3786 3.36974 18.3761 3.36726C18.3736 3.36477 18.3707 3.36251 18.3682 3.36002L18.3609 3.35279C18.3584 3.3503 18.3562 3.34733 18.3537 3.34483C18.3512 3.34233 18.3482 3.34011 18.3457 3.3376C18.3432 3.3351 18.341 3.33214 18.3385 3.32964C18.336 3.32716 18.333 3.32489 18.3305 3.32241L18.3002 3.29202C18.2977 3.28953 18.2954 3.28657 18.2929 3.28407C18.2904 3.28155 18.2875 3.27935 18.285 3.27683C18.2824 3.2743 18.2803 3.27141 18.2777 3.26888C18.2752 3.26635 18.2723 3.26417 18.2698 3.26164L18.2618 3.25369C18.2593 3.25117 18.2571 3.24824 18.2546 3.24573C18.2521 3.2432 18.2492 3.24103 18.2466 3.23849L18.2387 3.23054C18.2361 3.22801 18.234 3.22511 18.2314 3.22258C18.2289 3.22005 18.226 3.21788 18.2235 3.21535L18.2076 3.19943C18.205 3.1969 18.2029 3.19401 18.2003 3.19147L18.1924 3.18352C18.1899 3.18099 18.187 3.17882 18.1844 3.17628L18.1606 3.15241C18.158 3.14988 18.1559 3.14699 18.1533 3.14445L18.1374 3.12854C18.1349 3.12601 18.132 3.12384 18.1294 3.12131L18.0578 3.04969C18.0552 3.04703 18.0525 3.04368 18.0499 3.04101L18.026 3.01714C18.0233 3.01446 18.02 3.01186 18.0173 3.00918L17.9855 2.97735C17.9828 2.97467 17.9802 2.97136 17.9775 2.96867L17.9696 2.96072C17.9669 2.95802 17.9636 2.95545 17.9609 2.95276L17.937 2.92889C17.9343 2.92619 17.9318 2.92291 17.9291 2.92021L17.9211 2.91225C17.9184 2.90955 17.9151 2.907 17.9124 2.90429L17.9045 2.89634C17.9018 2.89363 17.8992 2.89036 17.8965 2.88766L17.8886 2.8797C17.8859 2.87699 17.8826 2.87445 17.8799 2.87174L17.864 2.85583C17.8613 2.85313 17.8587 2.84984 17.856 2.84715C17.8533 2.84443 17.85 2.8419 17.8473 2.83919L17.8394 2.83123C17.8367 2.82851 17.8341 2.82527 17.8314 2.82255L17.8235 2.81459C17.8207 2.81188 17.8175 2.80936 17.8148 2.80664L17.8068 2.79868C17.8041 2.79596 17.8016 2.79272 17.7989 2.79C17.7961 2.78728 17.7929 2.78476 17.7902 2.78204L17.7822 2.77408C17.7795 2.77136 17.777 2.76813 17.7743 2.7654L17.7663 2.75745C17.7636 2.75472 17.7604 2.75221 17.7576 2.74949L17.7497 2.74153C17.747 2.73881 17.7444 2.73557 17.7417 2.73285C17.739 2.73013 17.7358 2.72762 17.733 2.72489L17.7251 2.71694C17.7224 2.71421 17.7198 2.71098 17.7171 2.70826C17.7144 2.70556 17.7111 2.703 17.7084 2.7003L17.6925 2.68439C17.6898 2.68168 17.6873 2.67842 17.6846 2.6757C17.6818 2.67298 17.6786 2.67047 17.6759 2.66775L17.6679 2.65979C17.6652 2.65707 17.6627 2.65383 17.66 2.65111C17.6573 2.64841 17.654 2.64585 17.6513 2.64315L17.6354 2.62724C17.6327 2.62452 17.6301 2.62127 17.6274 2.61856C17.6247 2.61584 17.6215 2.61332 17.6187 2.6106L17.6028 2.59469C17.6001 2.59199 17.5976 2.58871 17.5949 2.58601C17.5922 2.58329 17.5889 2.58076 17.5862 2.57805L17.5703 2.56213C17.5676 2.55943 17.565 2.55616 17.5623 2.55345C17.5596 2.55075 17.5563 2.5482 17.5536 2.5455L17.5377 2.52958C17.535 2.52688 17.5325 2.5236 17.5298 2.5209L17.5218 2.51294C17.5191 2.51025 17.5158 2.50769 17.5131 2.50499L17.4893 2.48112C17.4866 2.47842 17.484 2.47512 17.4813 2.47244L17.4733 2.46448C17.4707 2.46179 17.4673 2.45921 17.4647 2.45652L17.4249 2.41674C17.4222 2.41406 17.4196 2.41072 17.4169 2.40805L17.3294 2.32053C17.3269 2.31799 17.324 2.31582 17.3214 2.31329L17.2816 2.27351C17.2791 2.27097 17.2769 2.26808 17.2744 2.26555C17.2719 2.26302 17.269 2.26084 17.2665 2.25832L17.2505 2.2424C17.248 2.23987 17.2458 2.23697 17.2433 2.23444L17.2354 2.22649C17.2328 2.22395 17.2299 2.22178 17.2274 2.21925L17.2194 2.2113C17.2169 2.20877 17.2147 2.20586 17.2122 2.20334C17.2097 2.2008 17.2068 2.19863 17.2042 2.1961L17.1963 2.18815C17.1938 2.18563 17.1916 2.1827 17.1891 2.18019C17.1865 2.17766 17.1836 2.17549 17.1811 2.17296C17.1786 2.17043 17.1764 2.16752 17.1739 2.165C17.1714 2.16249 17.1684 2.16027 17.1659 2.15777L17.1355 2.12738C17.133 2.1249 17.1308 2.12191 17.1283 2.11943C17.1258 2.11693 17.1228 2.11468 17.1203 2.11219C17.1178 2.10968 17.1156 2.10674 17.1131 2.10424C17.1106 2.10173 17.1076 2.0995 17.1051 2.097L17.0979 2.08977C17.0954 2.08729 17.0931 2.08428 17.0907 2.08181C17.0882 2.07932 17.0852 2.07706 17.0827 2.07458L17.0755 2.06734C17.073 2.06486 17.0707 2.06186 17.0683 2.05939C17.0658 2.05692 17.0628 2.05461 17.0603 2.05215L17.0386 2.03045C17.0361 2.028 17.0338 2.02494 17.0314 2.02249L17.0169 2.00803C17.0145 2.0056 17.0114 2.00321 17.0089 2.00079L16.9872 1.97909C16.9849 1.9768 16.983 1.97414 16.9807 1.97186L16.959 1.95016C16.9567 1.94786 16.9541 1.94593 16.9518 1.94364L16.9373 1.92918C16.935 1.92688 16.9331 1.92423 16.9308 1.92194C16.9285 1.91965 16.9259 1.91772 16.9236 1.91543L16.9163 1.9082C16.914 1.90591 16.9121 1.90325 16.9098 1.90097C16.9076 1.89869 16.9049 1.89672 16.9026 1.89446L16.8954 1.88722C16.8931 1.88496 16.8911 1.88224 16.8889 1.87999C16.8866 1.87772 16.8839 1.87573 16.8816 1.87348C16.8794 1.87121 16.8774 1.8685 16.8751 1.86624C16.8729 1.86399 16.8701 1.86198 16.8679 1.85973L16.8614 1.85322C16.8591 1.85099 16.8571 1.84821 16.8549 1.84599C16.8526 1.84373 16.8499 1.84173 16.8476 1.83948C16.8454 1.83722 16.8434 1.83449 16.8411 1.83224L16.8346 1.82573C16.8324 1.8235 16.8296 1.82145 16.8274 1.81922L16.8143 1.8062C16.8121 1.80399 16.81 1.80117 16.8078 1.79897L16.797 1.78812L7.84444 10.7399Z" fill="#454545"/>
</g>
<defs>
<clipPath id="clip0_1236_2063">
<rect width="20" height="20" fill="white" transform="translate(0.5)"/>
</clipPath>
</defs>
</svg>
