<svg width="27" height="27" viewBox="0 0 27 27" fill="none" xmlns="http://www.w3.org/2000/svg">
<path fill-rule="evenodd" clip-rule="evenodd" d="M12.15 2.7C6.93091 2.7 2.7 6.93091 2.7 12.15C2.7 17.3691 6.93091 21.6 12.15 21.6C17.3691 21.6 21.6 17.3691 21.6 12.15C21.6 6.93091 17.3691 2.7 12.15 2.7ZM0 12.15C0 5.43974 5.43974 0 12.15 0C18.8603 0 24.3 5.43974 24.3 12.15C24.3 15.0188 23.3058 17.6553 21.6431 19.7339L26.6046 24.6954C27.1318 25.2226 27.1318 26.0774 26.6046 26.6046C26.0774 27.1318 25.2226 27.1318 24.6954 26.6046L19.7339 21.6431C17.6553 23.3058 15.0188 24.3 12.15 24.3C5.43974 24.3 0 18.8603 0 12.15Z" fill="#004798"/>
</svg>
