<svg width="29" height="28" viewBox="0 0 29 28" fill="none" xmlns="http://www.w3.org/2000/svg">
<path fill-rule="evenodd" clip-rule="evenodd" d="M14.3332 3.33337C8.44221 3.33337 3.66658 8.109 3.66658 14C3.66658 19.8911 8.44221 24.6667 14.3332 24.6667C20.2243 24.6667 24.9999 19.8911 24.9999 14C24.9999 8.109 20.2243 3.33337 14.3332 3.33337ZM1.66658 14C1.66658 7.00443 7.33764 1.33337 14.3332 1.33337C21.3289 1.33337 26.9999 7.00443 26.9999 14C26.9999 20.9956 21.3289 26.6667 14.3332 26.6667C7.33764 26.6667 1.66658 20.9956 1.66658 14ZM14.6626 9.19748C14.0807 9.09767 13.4822 9.20702 12.9732 9.50616C12.4642 9.80531 12.0775 10.2749 11.8816 10.8319C11.6983 11.3529 11.1274 11.6266 10.6064 11.4434C10.0854 11.2601 9.81164 10.6892 9.99491 10.1682C10.3476 9.1657 11.0436 8.32036 11.9598 7.7819C12.876 7.24344 13.9533 7.04661 15.0007 7.22627C16.0481 7.40593 16.9981 7.95048 17.6825 8.76349C18.3669 9.5765 18.7415 10.6055 18.7399 11.6682L17.7399 11.6667H18.7399V11.6682C18.7392 13.3649 17.4797 14.5003 16.5446 15.1238C16.0465 15.4558 15.5555 15.7006 15.1929 15.8618C15.0102 15.943 14.8566 16.0045 14.7463 16.0465C14.6911 16.0675 14.6465 16.0838 14.6142 16.0953L14.5753 16.1089L14.5632 16.113L14.559 16.1144L14.5574 16.115C14.5574 16.115 14.5562 16.1154 14.2564 15.2161L14.5561 16.1154C14.0322 16.29 13.4659 16.0069 13.2912 15.4829C13.1168 14.9597 13.399 14.3941 13.9217 14.2187L13.9227 14.2183C13.9227 14.2183 13.9237 14.218 14.2399 15.1667L13.9237 14.218L13.9442 14.2108C13.9633 14.2041 13.9938 14.1929 14.0343 14.1775C14.1154 14.1466 14.2352 14.0988 14.3807 14.0341C14.6744 13.9036 15.0583 13.7109 15.4352 13.4597C16.2498 12.9166 16.7399 12.3025 16.7399 11.6667L16.7399 11.6652C16.7408 11.0748 16.5327 10.5032 16.1525 10.0515C15.7723 9.59982 15.2445 9.29729 14.6626 9.19748ZM13.3332 20.8334C13.3332 20.2811 13.781 19.8334 14.3332 19.8334H14.3449C14.8972 19.8334 15.3449 20.2811 15.3449 20.8334C15.3449 21.3857 14.8972 21.8334 14.3449 21.8334H14.3332C13.781 21.8334 13.3332 21.3857 13.3332 20.8334Z" fill="#C1C1C1"/>
<path d="M13.2333 17C13.2333 17.6075 13.7257 18.1 14.3333 18.1C14.9408 18.1 15.4333 17.6075 15.4333 17H13.2333ZM13.2333 15V17H15.4333V15H13.2333Z" fill="#C1C1C1"/>
</svg>
