<svg width="19" height="20" viewBox="0 0 19 20" fill="none" xmlns="http://www.w3.org/2000/svg">
<path fill-rule="evenodd" clip-rule="evenodd" d="M8.75796 1.25987C8.91386 0.948519 9.23391 0.753571 9.5821 0.757883C10.112 0.764445 10.6337 0.890678 11.108 1.12715C11.5823 1.36362 11.997 1.70422 12.3212 2.1235C12.6454 2.54278 12.8706 3.02989 12.9801 3.54845C13.0895 4.06641 13.0805 4.60236 12.9539 5.11636L12.9534 5.11814L12.3936 7.42448H16.0958C16.4957 7.42448 16.8901 7.51758 17.2477 7.69641C17.6054 7.87524 17.9165 8.13488 18.1564 8.45478C18.3964 8.77468 18.5585 9.14605 18.63 9.53947C18.7016 9.93289 18.6805 10.3376 18.5686 10.7214L16.627 17.3878C16.4709 17.9228 16.1455 18.3931 15.6996 18.7275C15.2538 19.0619 14.7115 19.2427 14.1542 19.2427H2.90417C2.22104 19.2427 1.56588 18.9713 1.08284 18.4882C0.599789 18.0052 0.328415 17.35 0.328415 16.6669V10.0002C0.328415 9.3171 0.599789 8.66195 1.08284 8.1789C1.56588 7.69585 2.22104 7.42448 2.90417 7.42448H5.20369C5.34463 7.4244 5.48276 7.38501 5.60254 7.31074C5.72232 7.23646 5.819 7.13024 5.88172 7.00402L5.88296 7.00154L8.75796 1.25987ZM4.49508 9.24266H2.90417C2.70325 9.24266 2.51056 9.32248 2.36849 9.46455C2.22641 9.60662 2.1466 9.79931 2.1466 10.0002V16.6669C2.1466 16.8678 2.22641 17.0605 2.36849 17.2026C2.51056 17.3447 2.70325 17.4245 2.90417 17.4245H4.49508V9.24266ZM6.31326 17.4245H14.1542C14.3181 17.4245 14.4776 17.3713 14.6087 17.273C14.7398 17.1747 14.8354 17.0366 14.8813 16.8794M14.8813 16.8794L16.823 10.2127C16.8559 10.0998 16.8622 9.98043 16.8412 9.86472C16.8202 9.749 16.7725 9.63978 16.7019 9.54569C16.6313 9.4516 16.5398 9.37524 16.4346 9.32264C16.3294 9.27004 16.2134 9.24266 16.0958 9.24266H11.2375C10.9587 9.24266 10.6952 9.11469 10.5229 8.89549C10.3505 8.67629 10.2883 8.39012 10.3541 8.11914L11.1874 4.68581L11.1882 4.68233C11.2496 4.43376 11.254 4.17454 11.2011 3.92403C11.1482 3.67352 11.0394 3.43819 10.8828 3.23564C10.7262 3.0331 10.5259 2.86855 10.2967 2.75432C10.2286 2.72037 10.1585 2.69113 10.0869 2.66671L7.50996 7.81312L7.50929 7.81445C7.29603 8.243 6.96756 8.60366 6.56073 8.85594C6.48053 8.90567 6.3979 8.95081 6.31326 8.99123V17.4245" fill="#004798"/>
</svg>
