<svg width="24" height="24" viewBox="0 0 24 24" fill="none" xmlns="http://www.w3.org/2000/svg">
<g clip-path="url(#clip0_1423_2680)">
<rect width="24" height="24" rx="12" fill="#002652"/>
<path d="M14.6753 7.95368C14.2293 6.98164 12.643 5.94504 10.5281 6.80991C6.8269 8.32348 6.359 11.7346 8.13324 14.3775C9.4396 16.3235 12.2245 16.6702 14.2293 15.6748C15.9712 14.81 16.5136 13.8645 16.8141 12.957C17.1147 12.0494 15.9712 10.0532 15.9712 10.0532L10.1828 12.957" stroke="#BBDBFF" stroke-width="3.63243"/>
<mask id="path-3-outside-1_1423_2680" maskUnits="userSpaceOnUse" x="1.13861" y="8.30599" width="12.6603" height="11.9282" fill="black">
<rect fill="white" x="1.13861" y="8.30599" width="12.6603" height="11.9282"/>
<path d="M8.44595 14.1209C8.6637 14.351 9.01828 14.4115 9.30446 14.2465L9.41977 14.163C9.6279 13.9778 9.7066 13.6838 9.61838 13.4192L9.56027 13.2892C9.39095 12.9968 9.04171 12.8717 8.73325 12.974L8.60378 13.0329C8.31751 13.1984 8.19377 13.5358 8.28469 13.8396L4.02222 16.3005L3.90161 16.0916L4.59849 15.6893L7.55251 11.2121L9.53717 11.257C9.54871 11.2499 9.87628 11.0481 10.3969 10.7246L12.2367 13.9113C11.6877 14.1872 11.3453 14.3624 11.3336 14.3684L10.3557 16.0674L5.00132 16.387L4.30444 16.7894L4.18433 16.5813L8.44595 14.1209ZM8.62827 13.8273C8.52494 13.6473 8.58685 13.4173 8.76589 13.3137C8.94511 13.2107 9.17531 13.2719 9.27948 13.4513C9.38337 13.6313 9.32145 13.8619 9.14235 13.9657C8.96285 14.0691 8.73229 14.0074 8.62827 13.8273Z"/>
</mask>
<path d="M8.44595 14.1209C8.6637 14.351 9.01828 14.4115 9.30446 14.2465L9.41977 14.163C9.6279 13.9778 9.7066 13.6838 9.61838 13.4192L9.56027 13.2892C9.39095 12.9968 9.04171 12.8717 8.73325 12.974L8.60378 13.0329C8.31751 13.1984 8.19377 13.5358 8.28469 13.8396L4.02222 16.3005L3.90161 16.0916L4.59849 15.6893L7.55251 11.2121L9.53717 11.257C9.54871 11.2499 9.87628 11.0481 10.3969 10.7246L12.2367 13.9113C11.6877 14.1872 11.3453 14.3624 11.3336 14.3684L10.3557 16.0674L5.00132 16.387L4.30444 16.7894L4.18433 16.5813L8.44595 14.1209ZM8.62827 13.8273C8.52494 13.6473 8.58685 13.4173 8.76589 13.3137C8.94511 13.2107 9.17531 13.2719 9.27948 13.4513C9.38337 13.6313 9.32145 13.8619 9.14235 13.9657C8.96285 14.0691 8.73229 14.0074 8.62827 13.8273Z" fill="#BBDBFF"/>
<path d="M8.44595 14.1209L8.87002 13.7197L8.55324 13.3848L8.15406 13.6153L8.44595 14.1209ZM9.30446 14.2465L9.59607 14.7523L9.6223 14.7371L9.64683 14.7194L9.30446 14.2465ZM9.41977 14.163L9.76214 14.6359L9.78597 14.6186L9.80794 14.5991L9.41977 14.163ZM9.61838 13.4192L10.1722 13.2345L10.1631 13.2072L10.1513 13.1808L9.61838 13.4192ZM9.56027 13.2892L10.0932 13.0509L10.0807 13.023L10.0654 12.9966L9.56027 13.2892ZM8.73325 12.974L8.54954 12.4198L8.5198 12.4297L8.49129 12.4427L8.73325 12.974ZM8.60378 13.0329L8.36183 12.5016L8.33609 12.5133L8.3116 12.5275L8.60378 13.0329ZM8.28469 13.8396L8.57658 14.3452L8.97629 14.1144L8.84396 13.6722L8.28469 13.8396ZM4.02222 16.3005L3.51665 16.5924L3.80854 17.098L4.31411 16.8061L4.02222 16.3005ZM3.90161 16.0916L3.60972 15.5861L3.10415 15.878L3.39604 16.3835L3.90161 16.0916ZM4.59849 15.6893L4.89038 16.1949L5.00982 16.1259L5.08577 16.0108L4.59849 15.6893ZM7.55251 11.2121L7.56573 10.6284L7.24301 10.6211L7.06523 10.8906L7.55251 11.2121ZM9.53717 11.257L9.52395 11.8406L9.69641 11.8445L9.8433 11.7541L9.53717 11.257ZM10.3969 10.7246L10.9024 10.4327L10.6009 9.9104L10.0887 10.2287L10.3969 10.7246ZM12.2367 13.9113L12.4989 14.4329L13.0516 14.1551L12.7423 13.6194L12.2367 13.9113ZM11.3336 14.3684L11.0675 13.8488L10.9138 13.9275L10.8276 14.0772L11.3336 14.3684ZM10.3557 16.0674L10.3905 16.6501L10.7047 16.6314L10.8617 16.3586L10.3557 16.0674ZM5.00132 16.387L4.96654 15.8043L4.82887 15.8125L4.70943 15.8814L5.00132 16.387ZM4.30444 16.7894L3.79887 17.0813L4.09076 17.5868L4.59634 17.2949L4.30444 16.7894ZM4.18433 16.5813L3.89243 16.0757L3.38686 16.3676L3.67875 16.8732L4.18433 16.5813ZM8.62827 13.8273L8.12198 14.1179L8.12276 14.1193L8.62827 13.8273ZM8.76589 13.3137L8.47492 12.8076L8.47346 12.8084L8.76589 13.3137ZM9.27948 13.4513L9.78512 13.1595L9.78433 13.1582L9.27948 13.4513ZM9.14235 13.9657L9.43371 14.4716L9.43517 14.4708L9.14235 13.9657ZM8.44595 14.1209L8.02188 14.5221C8.42031 14.9432 9.06967 15.0558 9.59607 14.7523L9.30446 14.2465L9.01286 13.7408C8.96689 13.7673 8.90709 13.7588 8.87002 13.7197L8.44595 14.1209ZM9.30446 14.2465L9.64683 14.7194L9.76214 14.6359L9.41977 14.163L9.07741 13.6902L8.9621 13.7737L9.30446 14.2465ZM9.41977 14.163L9.80794 14.5991C10.1902 14.2588 10.3343 13.7208 10.1722 13.2345L9.61838 13.4192L9.06457 13.6038C9.07888 13.6467 9.06562 13.6967 9.0316 13.727L9.41977 14.163ZM9.61838 13.4192L10.1513 13.1808L10.0932 13.0509L9.56027 13.2892L9.02734 13.5275L9.08546 13.6575L9.61838 13.4192ZM9.56027 13.2892L10.0654 12.9966C9.75517 12.4609 9.11619 12.232 8.54954 12.4198L8.73325 12.974L8.91696 13.5281C8.96724 13.5114 9.02673 13.5328 9.05508 13.5818L9.56027 13.2892ZM8.73325 12.974L8.49129 12.4427L8.36183 12.5016L8.60378 13.0329L8.84573 13.5642L8.9752 13.5052L8.73325 12.974ZM8.60378 13.0329L8.3116 12.5275C7.78388 12.8326 7.55943 13.4523 7.72541 14.007L8.28469 13.8396L8.84396 13.6722C8.82811 13.6193 8.85115 13.5642 8.89596 13.5383L8.60378 13.0329ZM8.28469 13.8396L7.99279 13.334L3.73032 15.795L4.02222 16.3005L4.31411 16.8061L8.57658 14.3452L8.28469 13.8396ZM4.02222 16.3005L4.52779 16.0086L4.40718 15.7997L3.90161 16.0916L3.39604 16.3835L3.51665 16.5924L4.02222 16.3005ZM3.90161 16.0916L4.1935 16.5972L4.89038 16.1949L4.59849 15.6893L4.3066 15.1837L3.60972 15.5861L3.90161 16.0916ZM4.59849 15.6893L5.08577 16.0108L8.03979 11.5336L7.55251 11.2121L7.06523 10.8906L4.11121 15.3678L4.59849 15.6893ZM7.55251 11.2121L7.53929 11.7957L9.52395 11.8406L9.53717 11.257L9.55038 10.6734L7.56573 10.6284L7.55251 11.2121ZM9.53717 11.257L9.8433 11.7541C9.85537 11.7466 10.1836 11.5445 10.705 11.2204L10.3969 10.7246L10.0887 10.2287C9.56893 10.5518 9.24205 10.7531 9.23103 10.7599L9.53717 11.257ZM10.3969 10.7246L9.8913 11.0165L11.7311 14.2032L12.2367 13.9113L12.7423 13.6194L10.9024 10.4327L10.3969 10.7246ZM12.2367 13.9113L11.9746 13.3897C11.424 13.6663 11.0803 13.8422 11.0675 13.8488L11.3336 14.3684L11.5996 14.8881C11.6103 14.8826 11.9514 14.708 12.4989 14.4329L12.2367 13.9113ZM11.3336 14.3684L10.8276 14.0772L9.84977 15.7762L10.3557 16.0674L10.8617 16.3586L11.8395 14.6596L11.3336 14.3684ZM10.3557 16.0674L10.3209 15.4846L4.96654 15.8043L5.00132 16.387L5.03611 16.9698L10.3905 16.6501L10.3557 16.0674ZM5.00132 16.387L4.70943 15.8814L4.01255 16.2838L4.30444 16.7894L4.59634 17.2949L5.29321 16.8926L5.00132 16.387ZM4.30444 16.7894L4.81001 16.4975L4.6899 16.2894L4.18433 16.5813L3.67875 16.8732L3.79887 17.0813L4.30444 16.7894ZM4.18433 16.5813L4.47622 17.0869L8.73784 14.6264L8.44595 14.1209L8.15406 13.6153L3.89243 16.0757L4.18433 16.5813ZM8.62827 13.8273L9.13457 13.5366C9.19116 13.6352 9.15796 13.7613 9.05832 13.819L8.76589 13.3137L8.47346 12.8084C8.01575 13.0733 7.85872 13.6593 8.12198 14.1179L8.62827 13.8273ZM8.76589 13.3137L9.05686 13.8198C8.95762 13.8768 8.83199 13.8432 8.77464 13.7445L9.27948 13.4513L9.78433 13.1582C9.51863 12.7006 8.93259 12.5445 8.47492 12.8076L8.76589 13.3137ZM9.27948 13.4513L8.77385 13.7431C8.71677 13.6442 8.7502 13.5183 8.84954 13.4607L9.14235 13.9657L9.43517 14.4708C9.89269 14.2055 10.05 13.6185 9.78512 13.1595L9.27948 13.4513ZM9.14235 13.9657L8.851 13.4599C8.95108 13.4022 9.07693 13.4369 9.13378 13.5353L8.62827 13.8273L8.12276 14.1193C8.38765 14.5778 8.97462 14.736 9.43371 14.4716L9.14235 13.9657Z" fill="#002652" mask="url(#path-3-outside-1_1423_2680)"/>
<path d="M12.0002 0.648438C18.2693 0.648551 23.3518 5.73089 23.3518 12C23.3517 18.269 18.2692 23.3514 12.0002 23.3516C5.73111 23.3516 0.648765 18.2691 0.648651 12C0.648651 5.73082 5.73104 0.648438 12.0002 0.648438ZM12.0002 1.94531C6.44767 1.9455 1.9465 6.44741 1.9465 12C1.94661 17.5525 6.44774 22.0535 12.0002 22.0537C17.5528 22.0537 22.0548 17.5526 22.0549 12C22.0549 6.4473 17.5529 1.94531 12.0002 1.94531Z" fill="#BBDBFF"/>
</g>
<defs>
<clipPath id="clip0_1423_2680">
<rect width="24" height="24" rx="12" fill="white"/>
</clipPath>
</defs>
</svg>
