<svg width="36" height="36" viewBox="0 0 36 36" fill="none" xmlns="http://www.w3.org/2000/svg">
<path d="M26.6434 8.74078C26.6038 8.50411 26.5056 8.27992 26.3572 8.08877C26.2084 7.89729 26.0153 7.74681 25.796 7.6508L25.569 7.57426L19.7936 6.12284C19.581 6.06947 19.3593 6.06449 19.145 6.11008C18.9304 6.15579 18.7285 6.25084 18.5556 6.38647C18.3828 6.52208 18.2429 6.6959 18.1467 6.8939C18.0509 7.09106 18.0002 7.30945 18 7.53032V30.9798L26.6631 28.8027V8.98174L26.6434 8.74078ZM20.9018 16.8738L21.0499 16.8809C21.7779 16.9552 22.3455 17.5739 22.3457 18.3252C22.3457 19.0767 21.7779 19.6952 21.0499 19.7696L20.9018 19.7767H20.8877C20.0903 19.7767 19.4439 19.1268 19.4439 18.3252C19.444 17.5238 20.0904 16.8738 20.8877 16.8738H20.9018ZM10.7808 28.4852H15.1123V8.16531H12.2246C11.8418 8.16531 11.4745 8.31843 11.2038 8.59053C10.9331 8.86266 10.7809 9.23189 10.7808 9.61673V28.4852ZM29.5508 28.4852H32.4385L32.5866 28.4923C33.3144 28.5668 33.8822 29.1854 33.8824 29.9366C33.8824 30.688 33.3145 31.3064 32.5866 31.3809L32.4385 31.388H28.2875L18.6994 33.7962C18.2738 33.9029 17.8284 33.9105 17.3994 33.8189C16.9706 33.7272 16.5675 33.5387 16.222 33.2675C15.8766 32.9962 15.5965 32.6487 15.4042 32.2526C15.2717 31.9795 15.1871 31.6872 15.1448 31.388H3.56153C2.76411 31.388 2.11768 30.7382 2.11768 29.9366C2.11783 29.1351 2.7642 28.4852 3.56153 28.4852H7.89308V9.61673C7.89315 8.46201 8.34983 7.35465 9.16209 6.53813C9.9744 5.72164 11.0759 5.26247 12.2246 5.26247H15.7482C16.0193 4.81613 16.3671 4.42045 16.779 4.09737C17.2977 3.69051 17.9021 3.40817 18.5457 3.27102C19.1894 3.13389 19.856 3.14606 20.4943 3.30646L26.2697 4.75788L26.6166 4.85993C27.4114 5.13218 28.1129 5.63215 28.6329 6.30143C29.2274 7.06671 29.5507 8.01076 29.5508 8.98174V28.4852Z" fill="#F9F9F9"/>
</svg>
