<svg width="38" height="37" viewBox="0 0 38 37" fill="none" xmlns="http://www.w3.org/2000/svg">
<rect x="0.5" width="37" height="37" rx="18.5" fill="#002652"/>
<path d="M23.125 12.2622C22.4374 10.7636 19.9919 9.16551 16.7314 10.4989C11.0254 12.8323 10.304 18.0911 13.0393 22.1656C15.0533 25.1656 19.3466 25.7002 22.4374 24.1656C25.1228 22.8323 25.959 21.3747 26.4224 19.9756C26.8858 18.5765 25.1228 15.4989 25.1228 15.4989L16.199 19.9756" stroke="#BBDBFF" stroke-width="5.6"/>
<mask id="path-3-outside-1_1236_2071" maskUnits="userSpaceOnUse" x="3.11981" y="13.4286" width="18.9904" height="17.8923" fill="black">
<rect fill="white" x="3.11981" y="13.4286" width="18.9904" height="17.8923"/>
<path d="M13.5198 21.7701C13.8553 22.1256 14.4016 22.219 14.8432 21.9645L14.9358 21.9043C15.3501 21.6056 15.4981 21.0538 15.2886 20.5876L15.2385 20.4891C14.9586 20.005 14.3601 19.8184 13.8611 20.0428L13.7626 20.0929C13.3214 20.3481 13.1296 20.8687 13.2698 21.337L6.7002 25.13L6.51465 24.8086L7.58957 24.188L12.1433 17.2863L15.2026 17.3547C15.2082 17.3513 15.7161 17.04 16.529 16.5348L19.3654 21.4476C18.5066 21.8792 17.9756 22.1499 17.9721 22.1517L16.4646 24.771L8.21066 25.2638L7.13574 25.8844L6.9502 25.563L13.5198 21.7701ZM13.8016 21.3187C13.6417 21.0411 13.7364 20.6859 14.0126 20.5259C14.2893 20.3662 14.6449 20.4616 14.8055 20.7391C14.9657 21.0169 14.8699 21.3717 14.5932 21.5315C14.3165 21.6908 13.962 21.5962 13.8016 21.3187Z"/>
</mask>
<path d="M13.5198 21.7701C13.8553 22.1256 14.4016 22.219 14.8432 21.9645L14.9358 21.9043C15.3501 21.6056 15.4981 21.0538 15.2886 20.5876L15.2385 20.4891C14.9586 20.005 14.3601 19.8184 13.8611 20.0428L13.7626 20.0929C13.3214 20.3481 13.1296 20.8687 13.2698 21.337L6.7002 25.13L6.51465 24.8086L7.58957 24.188L12.1433 17.2863L15.2026 17.3547C15.2082 17.3513 15.7161 17.04 16.529 16.5348L19.3654 21.4476C18.5066 21.8792 17.9756 22.1499 17.9721 22.1517L16.4646 24.771L8.21066 25.2638L7.13574 25.8844L6.9502 25.563L13.5198 21.7701ZM13.8016 21.3187C13.6417 21.0411 13.7364 20.6859 14.0126 20.5259C14.2893 20.3662 14.6449 20.4616 14.8055 20.7391C14.9657 21.0169 14.8699 21.3717 14.5932 21.5315C14.3165 21.6908 13.962 21.5962 13.8016 21.3187Z" fill="#BBDBFF"/>
<path d="M13.5198 21.7701L14.1743 21.1523L13.686 20.6349L13.0698 20.9906L13.5198 21.7701ZM14.8432 21.9645L15.2926 22.7443L15.3136 22.7322L15.3339 22.719L14.8432 21.9645ZM14.9358 21.9043L15.4265 22.6587L15.4446 22.647L15.4621 22.6343L14.9358 21.9043ZM15.2886 20.5876L16.1095 20.2187L16.1006 20.1989L16.0908 20.1796L15.2886 20.5876ZM15.2385 20.4891L16.0407 20.0811L16.0297 20.0596L16.0177 20.0387L15.2385 20.4891ZM13.8611 20.0428L13.4919 19.222L13.4722 19.2309L13.4531 19.2406L13.8611 20.0428ZM13.7626 20.0929L13.3546 19.2907L13.333 19.3017L13.312 19.3138L13.7626 20.0929ZM13.2698 21.337L13.7198 22.1165L14.336 21.7607L14.132 21.079L13.2698 21.337ZM6.7002 25.13L5.92077 25.58L6.37077 26.3594L7.1502 25.9094L6.7002 25.13ZM6.51465 24.8086L6.06465 24.0292L5.28523 24.4792L5.73523 25.2586L6.51465 24.8086ZM7.58957 24.188L8.03957 24.9675L8.2237 24.8611L8.34079 24.6837L7.58957 24.188ZM12.1433 17.2863L12.1634 16.3865L11.6661 16.3754L11.3921 16.7907L12.1433 17.2863ZM15.2026 17.3547L15.1825 18.2545L15.4471 18.2604L15.6729 18.1221L15.2026 17.3547ZM16.529 16.5348L17.3084 16.0848L16.8435 15.2796L16.0539 15.7704L16.529 16.5348ZM19.3654 21.4476L19.7695 22.2518L20.6216 21.8235L20.1448 20.9976L19.3654 21.4476ZM17.9721 22.1517L17.5634 21.3498L17.3254 21.4712L17.1921 21.7027L17.9721 22.1517ZM16.4646 24.771L16.5183 25.6694L17.0026 25.6405L17.2446 25.2199L16.4646 24.771ZM8.21066 25.2638L8.15702 24.3654L7.94479 24.3781L7.76066 24.4844L8.21066 25.2638ZM7.13574 25.8844L6.35632 26.3344L6.80632 27.1138L7.58574 26.6638L7.13574 25.8844ZM6.9502 25.563L6.50019 24.7836L5.72077 25.2336L6.17077 26.013L6.9502 25.563ZM13.8016 21.3187L13.0217 21.7679L13.0224 21.769L13.8016 21.3187ZM14.0126 20.5259L13.5626 19.7465L13.5616 19.7471L14.0126 20.5259ZM14.8055 20.7391L15.5851 20.2894L15.5844 20.2883L14.8055 20.7391ZM14.5932 21.5315L15.0421 22.3115L15.0432 22.3109L14.5932 21.5315ZM13.5198 21.7701L12.8653 22.3878C13.4794 23.0385 14.4805 23.2123 15.2926 22.7443L14.8432 21.9645L14.3937 21.1848C14.3226 21.2258 14.2313 21.2126 14.1743 21.1523L13.5198 21.7701ZM14.8432 21.9645L15.3339 22.719L15.4265 22.6587L14.9358 21.9043L14.4451 21.1498L14.3525 21.21L14.8432 21.9645ZM14.9358 21.9043L15.4621 22.6343C16.2232 22.0857 16.4941 21.0746 16.1095 20.2187L15.2886 20.5876L14.4677 20.9565C14.502 21.033 14.477 21.1255 14.4095 21.1742L14.9358 21.9043ZM15.2886 20.5876L16.0908 20.1796L16.0407 20.0811L15.2385 20.4891L14.4363 20.8971L14.4864 20.9956L15.2886 20.5876ZM15.2385 20.4891L16.0177 20.0387C15.5051 19.1519 14.409 18.8095 13.4919 19.222L13.8611 20.0428L14.2303 20.8636C14.3111 20.8273 14.4122 20.858 14.4593 20.9395L15.2385 20.4891ZM13.8611 20.0428L13.4531 19.2406L13.3546 19.2907L13.7626 20.0929L14.1706 20.8951L14.2691 20.845L13.8611 20.0428ZM13.7626 20.0929L13.312 19.3138C12.4997 19.7836 12.1514 20.7389 12.4076 21.5951L13.2698 21.337L14.132 21.079C14.1079 20.9985 14.1431 20.9125 14.2131 20.872L13.7626 20.0929ZM13.2698 21.337L12.8198 20.5576L6.25019 24.3506L6.7002 25.13L7.1502 25.9094L13.7198 22.1165L13.2698 21.337ZM6.7002 25.13L7.47962 24.68L7.29407 24.3586L6.51465 24.8086L5.73523 25.2586L5.92077 25.58L6.7002 25.13ZM6.51465 24.8086L6.96465 25.5881L8.03957 24.9675L7.58957 24.188L7.13957 23.4086L6.06465 24.0292L6.51465 24.8086ZM7.58957 24.188L8.34079 24.6837L12.8945 17.782L12.1433 17.2863L11.3921 16.7907L6.83835 23.6924L7.58957 24.188ZM12.1433 17.2863L12.1232 18.1861L15.1825 18.2545L15.2026 17.3547L15.2227 16.4549L12.1634 16.3865L12.1433 17.2863ZM15.2026 17.3547L15.6729 18.1221C15.6797 18.1179 16.1892 17.8056 17.0041 17.2992L16.529 16.5348L16.0539 15.7704C15.2429 16.2744 14.7367 16.5847 14.7324 16.5873L15.2026 17.3547ZM16.529 16.5348L15.7495 16.9848L18.586 21.8976L19.3654 21.4476L20.1448 20.9976L17.3084 16.0848L16.529 16.5348ZM19.3654 21.4476L18.9612 20.6435C18.1006 21.076 17.568 21.3475 17.5634 21.3498L17.9721 22.1517L18.3809 22.9535C18.3831 22.9523 18.9126 22.6824 19.7695 22.2518L19.3654 21.4476ZM17.9721 22.1517L17.1921 21.7027L15.6846 24.3221L16.4646 24.771L17.2446 25.2199L18.7522 22.6006L17.9721 22.1517ZM16.4646 24.771L16.411 23.8726L8.15702 24.3654L8.21066 25.2638L8.2643 26.1622L16.5183 25.6694L16.4646 24.771ZM8.21066 25.2638L7.76066 24.4844L6.68574 25.105L7.13574 25.8844L7.58574 26.6638L8.66066 26.0432L8.21066 25.2638ZM7.13574 25.8844L7.91516 25.4344L7.72962 25.113L6.9502 25.563L6.17077 26.013L6.35632 26.3344L7.13574 25.8844ZM6.9502 25.563L7.4002 26.3425L13.9698 22.5495L13.5198 21.7701L13.0698 20.9906L6.50019 24.7836L6.9502 25.563ZM13.8016 21.3187L14.5815 20.8695C14.6681 21.0198 14.619 21.2148 14.4636 21.3048L14.0126 20.5259L13.5616 19.7471C12.8539 20.1569 12.6154 21.0624 13.0217 21.7679L13.8016 21.3187ZM14.0126 20.5259L14.4625 21.3054C14.3073 21.395 14.1137 21.3406 14.0265 21.1899L14.8055 20.7391L15.5844 20.2883C15.1761 19.5827 14.2712 19.3375 13.5626 19.7465L14.0126 20.5259ZM14.8055 20.7391L14.0259 21.1888C13.9375 21.0355 13.9902 20.8404 14.1431 20.7521L14.5932 21.5315L15.0432 22.3109C15.7496 21.903 15.994 20.9983 15.5851 20.2894L14.8055 20.7391ZM14.5932 21.5315L14.1442 20.7515C14.2975 20.6633 14.4926 20.7157 14.5808 20.8684L13.8016 21.3187L13.0224 21.769C13.4313 22.4766 14.3355 22.7183 15.0421 22.3115L14.5932 21.5315Z" fill="#002652" mask="url(#path-3-outside-1_1236_2071)"/>
<path d="M19 1C28.665 1 36.5 8.83502 36.5 18.5C36.5 28.165 28.665 36 19 36C9.33502 36 1.5 28.165 1.5 18.5C1.5 8.83502 9.33502 1 19 1ZM19 3C10.4396 3 3.5 9.93959 3.5 18.5C3.5 27.0604 10.4396 34 19 34C27.5604 34 34.5 27.0604 34.5 18.5C34.5 9.93959 27.5604 3 19 3Z" fill="#BBDBFF"/>
</svg>
