<svg width="27" height="27" viewBox="0 0 27 27" fill="none" xmlns="http://www.w3.org/2000/svg">
<path fill-rule="evenodd" clip-rule="evenodd" d="M16.75 0.25C17.4404 0.25 18 0.809644 18 1.5V4C18 4.69036 17.4404 5.25 16.75 5.25C16.0596 5.25 15.5 4.69036 15.5 4V1.5C15.5 0.809644 16.0596 0.25 16.75 0.25ZM10.8661 4.36612C11.3543 3.87796 12.1457 3.87796 12.6339 4.36612L14.1339 5.86612C14.622 6.35427 14.622 7.14573 14.1339 7.63388C13.6457 8.12204 12.8543 8.12204 12.3661 7.63388L10.8661 6.13388C10.378 5.64573 10.378 4.85427 10.8661 4.36612ZM22.6339 4.36612C23.122 4.85427 23.122 5.64573 22.6339 6.13388L21.1339 7.63388C20.6457 8.12204 19.8543 8.12204 19.3661 7.63388C18.878 7.14573 18.878 6.35427 19.3661 5.86612L20.8661 4.36612C21.3543 3.87796 22.1457 3.87796 22.6339 4.36612ZM6.75 10.25C6.75 9.55964 7.30964 9 8 9H10.5C11.1904 9 11.75 9.55964 11.75 10.25C11.75 10.9404 11.1904 11.5 10.5 11.5H8C7.30964 11.5 6.75 10.9404 6.75 10.25ZM15.5 10.25C15.5 9.55964 16.0596 9 16.75 9H16.7625C17.4529 9 18.0125 9.55964 18.0125 10.25C18.0125 10.9404 17.4529 11.5 16.7625 11.5H16.75C16.0596 11.5 15.5 10.9404 15.5 10.25ZM21.75 10.25C21.75 9.55964 22.3096 9 23 9H25.5C26.1904 9 26.75 9.55964 26.75 10.25C26.75 10.9404 26.1904 11.5 25.5 11.5H23C22.3096 11.5 21.75 10.9404 21.75 10.25ZM19.3661 12.8661C19.8543 12.378 20.6457 12.378 21.1339 12.8661L22.6339 14.3661C23.122 14.8543 23.122 15.6457 22.6339 16.1339C22.1457 16.622 21.3543 16.622 20.8661 16.1339L19.3661 14.6339C18.878 14.1457 18.878 13.3543 19.3661 12.8661ZM13.8839 13.1161C14.372 13.6043 14.372 14.3957 13.8839 14.8839L2.63388 26.1339C2.14573 26.622 1.35427 26.622 0.866117 26.1339C0.377961 25.6457 0.377961 24.8543 0.866117 24.3661L12.1161 13.1161C12.6043 12.628 13.3957 12.628 13.8839 13.1161ZM16.75 15.25C17.4404 15.25 18 15.8096 18 16.5V19C18 19.6904 17.4404 20.25 16.75 20.25C16.0596 20.25 15.5 19.6904 15.5 19V16.5C15.5 15.8096 16.0596 15.25 16.75 15.25Z" fill="#403AC0"/>
</svg>
