<svg width="201" height="200" viewBox="0 0 201 200" fill="none" xmlns="http://www.w3.org/2000/svg">
<g clip-path="url(#clip0_1236_2061)">
<rect x="0.5" width="200" height="200" rx="12.5" fill="#BBDBFF"/>
<path fill-rule="evenodd" clip-rule="evenodd" d="M41.2728 145.05L68.3284 64.1031L98.9945 56.5728C125.955 28.7981 155.998 -3.48436 186.832 -40.4716L241.316 8.88425C241.316 8.88425 169.216 69.0783 139.331 96.9094L131.267 127.041L50.3196 154.097L41.2545 163.162L38.3047 160.212L93.6464 104.871C97.9678 107.731 103.852 107.253 107.666 103.439C112.02 99.0848 112.027 92.033 107.682 87.688C103.337 83.3431 96.2851 83.3503 91.9312 87.7041C88.1173 91.5181 87.6388 97.4023 90.4994 101.724L35.1578 157.065L32.2077 154.115L41.2728 145.05ZM104.528 90.8414C101.921 88.2344 97.6904 88.2387 95.0781 90.851C92.4658 93.4633 92.4615 97.6944 95.0685 100.301C97.6754 102.908 101.907 102.904 104.519 100.292C107.131 97.6795 107.135 93.4484 104.528 90.8414Z" fill="#E8F3FF"/>
<path d="M-4.5 165.226C-3.20919 166.573 -1.53619 168.044 0.5 169.544C13.0546 178.792 39.4162 189.124 75.1269 177.964C130.5 160.66 153 149.207 175.5 151.231C187.359 152.299 195.077 155.076 200.5 158.616C209.367 164.405 212.096 172.235 216.75 177.964" stroke="#E8F3FF" stroke-width="6.4"/>
</g>
<defs>
<clipPath id="clip0_1236_2061">
<rect x="0.5" width="200" height="200" rx="12.5" fill="white"/>
</clipPath>
</defs>
</svg>
