<svg width="254" height="24" viewBox="0 0 254 24" fill="none" xmlns="http://www.w3.org/2000/svg">
<g clip-path="url(#clip0_1345_4345)">
<path d="M93.215 5.965C93.2 10.54 91.115 13.6 87.29 15.61L86.3 14.5C88.235 13.615 89.855 12.19 90.77 10.345L86.855 10.765L86.615 9.43L91.28 9.085C91.445 8.485 91.565 7.87 91.61 7.21H87.29V5.965H93.215ZM96.83 4.57V9.79H98.9V11.065H96.83V17.935H95.285V4.57H96.83ZM106.194 5.965C106.179 10.54 104.094 13.6 100.269 15.61L99.2785 14.5C101.214 13.615 102.834 12.19 103.749 10.345L99.8335 10.765L99.5935 9.43L104.259 9.085C104.424 8.485 104.544 7.87 104.589 7.21H100.269V5.965H106.194ZM109.809 4.57V9.79H111.879V11.065H109.809V17.935H108.264V4.57H109.809ZM124.482 16.225H112.407V14.995H117.657V12.715C115.182 12.475 113.607 11.065 113.607 9.07C113.607 6.865 115.542 5.395 118.437 5.395C121.377 5.395 123.297 6.865 123.297 9.07C123.297 11.08 121.692 12.49 119.187 12.73V14.995H124.482V16.225ZM121.752 9.085C121.752 7.66 120.447 6.655 118.437 6.655C116.472 6.655 115.152 7.66 115.152 9.085C115.152 10.495 116.472 11.455 118.437 11.455C120.432 11.455 121.752 10.495 121.752 9.085ZM140.231 12.775H136.106V15.01H141.401V16.24H129.326V15.01H134.576V12.775H130.871V8.455H138.311V6.73H130.826V5.5H139.841V9.7H132.416V11.53H140.231V12.775ZM154.379 15.985H142.304V14.74H154.379V15.985ZM152.804 6.01C152.804 9.55 152.579 12.055 152.219 13.81L150.704 13.615C151.034 12.28 151.259 9.385 151.259 7.225H143.699V6.01H152.804ZM166.278 14.26H164.748V4.57H166.278V14.26ZM166.593 17.545H157.443V13.345H158.973V16.315H166.593V17.545ZM162.528 8.83C162.528 10.735 161.148 12.1 159.108 12.1C157.068 12.1 155.658 10.735 155.658 8.845C155.658 6.94 157.053 5.56 159.108 5.56C161.148 5.56 162.528 6.925 162.528 8.83ZM160.998 8.83C160.998 7.66 160.278 6.835 159.108 6.835C157.968 6.835 157.203 7.69 157.203 8.83C157.203 9.925 157.968 10.795 159.108 10.795C160.278 10.795 160.998 9.925 160.998 8.83Z" fill="#171717"/>
</g>
<defs>
<clipPath id="clip0_1345_4345">
<rect width="254" height="22.5" fill="white" transform="translate(0 0.75)"/>
</clipPath>
</defs>
</svg>
