<svg width="156" height="34" viewBox="0 0 156 34" fill="none" xmlns="http://www.w3.org/2000/svg">
<g id="title">
<path id="Vector" d="M138.749 33.5001V12.4286H143.351V14.7598C144.471 13.2158 145.985 12.1259 148.407 12.1259C152.191 12.1259 155.794 15.0928 155.794 20.5121V20.5726C155.794 25.9919 152.252 28.9588 148.407 28.9588C145.955 28.9588 144.441 27.8387 143.351 26.5368V33.5001H138.749ZM147.226 25.0533C149.376 25.0533 151.192 23.2974 151.192 20.5726V20.5121C151.192 17.8176 149.376 16.0313 147.226 16.0313C145.077 16.0313 143.29 17.8176 143.29 20.5121V20.5726C143.29 23.2671 145.077 25.0533 147.226 25.0533Z" fill="#01326B"/>
<path id="Vector_2" d="M127.309 28.9889C121.618 28.9889 118.136 25.8403 118.136 19.5733V7.46326H122.798V19.4522C122.798 22.9339 124.494 24.6898 127.37 24.6898C130.246 24.6898 131.941 22.9944 131.941 19.6036V7.46326H136.604V19.4219C136.604 25.8403 133.001 28.9889 127.309 28.9889Z" fill="#01326B"/>
<path id="Vector_3" d="M87.7051 28.7771L82.7097 12.4285H87.3721L89.9758 22.2679L93.0335 12.3679H96.9996L100.088 22.2982L102.752 12.4285H107.323L102.267 28.7771H98.1198L95.0014 18.8165L91.8225 28.7771H87.7051Z" fill="#01326B"/>
<path id="Vector_4" d="M11.1413 29.0192C4.54127 29.0192 0 24.4174 0 18.1201V18.0596C0 12.0348 4.69265 7.09998 11.111 7.09998C14.8954 7.09998 17.2568 8.12933 19.4366 10.0064C18.4722 11.1697 17.8641 11.9032 17.013 12.9298C16.852 13.1239 16.6824 13.3286 16.5 13.5486C16.2092 13.3017 16.0392 13.1376 15.7485 12.9298C14.4347 11.9906 12.9428 11.399 10.9596 11.399C7.56879 11.399 4.8743 14.3963 4.8743 17.999V18.0596C4.8743 21.9348 7.53851 24.7807 11.2926 24.7807C13.0183 24.7807 14.5018 24.3568 15.6825 23.5091V20.4816H10.9899V16.455H20.1935V25.6586C18.0137 27.5054 15.0165 29.0192 11.1413 29.0192Z" fill="#01326B"/>
<path id="Union" fill-rule="evenodd" clip-rule="evenodd" d="M60.9855 1.37021L63.5779 6.55487L62.465 8.38848C62.47 8.72992 62.4763 9.0775 62.484 9.43102H58.5426C58.5582 9.07918 58.5721 8.73164 58.5843 8.38848L57.5228 6.55487L60.1152 1.37021V0.499878H60.3989V5.81312C60.0535 5.88327 59.7935 6.1887 59.7935 6.55485C59.7935 6.97287 60.1323 7.31173 60.5503 7.31173C60.9683 7.31173 61.3072 6.97287 61.3072 6.55485C61.3072 6.18867 61.0472 5.88322 60.7017 5.81311V0.499878H60.9855V1.37021ZM58.5287 9.73377H62.4908C62.5453 12.0219 62.6612 14.5512 62.9078 17.2638C63.1414 19.8328 63.4828 22.064 63.9562 23.6103C64.1564 24.2644 64.3525 24.7007 64.5143 24.9656C64.5842 24.9008 64.6717 24.8059 64.7763 24.6675C65.1473 24.1763 65.5186 23.4015 65.8536 22.4108C65.9395 22.1569 66.0203 21.8972 66.0961 21.6349C66.0577 21.3069 66.0381 20.9727 66.0381 20.6332V20.5726C66.0381 15.9102 69.7922 12.1259 74.8482 12.1259C79.8436 12.1259 83.5977 15.8194 83.5977 20.5121V20.5726C83.5977 25.235 79.8436 29.0194 74.7876 29.0194C72.1283 29.0194 69.8207 27.9726 68.2441 26.2856C68.1037 26.5165 67.9545 26.7386 67.7959 26.9486C67.0793 27.8971 65.9406 28.8829 64.3347 28.8829C63.0326 28.8829 62.1208 28.1064 61.5647 27.3551C61.0596 26.6727 60.6915 25.8193 60.4083 24.9429C60.1461 25.8032 59.816 26.6379 59.3768 27.3031C58.9469 27.954 58.108 28.8829 56.766 28.8829C55.8524 28.8829 55.1232 28.471 54.6071 28.001C54.1277 27.5646 53.7604 27.0188 53.4735 26.483C52.2385 28.2058 50.1613 28.9628 47.3036 28.9628C43.2077 28.9628 40.9337 27.5032 40.191 24.9929C37.2177 29.0988 32.4326 29.0469 30.1954 29.0226C30.0392 29.0209 29.8955 29.0194 29.7656 29.0194C24.8913 29.0194 21.2886 25.5983 21.2886 20.6332V20.5726C21.2886 15.9405 24.5886 12.1259 29.3115 12.1259C34.7307 12.1259 37.2133 16.3341 37.2133 20.9359C37.2133 21.2531 37.1902 21.5933 37.1642 21.9768L37.1528 22.1469H25.8601C26.3143 24.2359 27.7675 25.3258 29.8262 25.3258C29.9409 25.3258 30.0948 25.3351 30.2813 25.3463C32.3959 25.4733 38.7139 25.8529 39.9165 15.8901V12.4285H44.5183V21.4807C44.5183 23.6605 45.5174 24.7807 47.3036 24.7807C49.0899 24.7807 50.1798 23.6605 50.1798 21.4807V12.4285H54.7816L55.2521 18.6651L55.2433 18.7301C55.3923 19.6937 55.5724 20.655 55.7763 21.561C56.033 22.7017 56.3252 23.6446 56.6285 24.3242C56.6905 24.1509 56.7547 23.9547 56.82 23.7339C57.2683 22.2181 57.6325 20.0333 57.9128 17.5099C58.2205 14.7406 58.4157 12.1388 58.5287 9.73377ZM64.322 25.099C64.3132 25.0998 64.3088 25.1018 64.3088 25.1018C64.3088 25.1018 64.3092 25.1018 64.31 25.1017C64.3106 25.1017 64.3115 25.1016 64.3127 25.1014C64.3149 25.101 64.318 25.1003 64.322 25.099ZM56.141 25.3212C56.141 25.3212 56.1461 25.3144 56.1564 25.3044C56.1463 25.3168 56.141 25.3212 56.141 25.3212ZM60.5503 7.00898C60.8011 7.00898 61.0045 6.80566 61.0045 6.55485C61.0045 6.30404 60.8011 6.10073 60.5503 6.10073C60.2995 6.10073 60.0962 6.30404 60.0962 6.55485C60.0962 6.80566 60.2995 7.00898 60.5503 7.00898ZM25.7996 19.2708H32.7326C32.4601 17.2121 31.2491 15.8194 29.3115 15.8194C27.3739 15.8194 26.1629 17.1818 25.7996 19.2708ZM79.0564 20.6332C79.0564 23.0552 77.4821 25.0533 74.8482 25.0533C72.305 25.0533 70.5794 22.9644 70.5794 20.5726V20.5121C70.5794 18.0901 72.1537 16.0919 74.7876 16.0919C77.3307 16.0919 79.0564 18.1809 79.0564 20.5726V20.6332Z" fill="#01326B"/>
</g>
</svg>
